<?xml version="1.0" encoding="utf-8"?>
<!-- Generator: Adobe Illustrator 19.1.0, SVG Export Plug-In . SVG Version: 6.00 Build 0)  -->
<svg version="1.1" id="Layer_2" xmlns="http://www.w3.org/2000/svg" xmlns:xlink="http://www.w3.org/1999/xlink" x="0px" y="0px"
	 viewBox="-66.5 197 360 108" style="enable-background:new -66.5 197 360 108;" xml:space="preserve">
<style type="text/css">
	.st0{fill:#2DB9E7;}
	.st1{fill:none;stroke:#2DB9E7;stroke-width:12;stroke-miterlimit:10;}
</style>
<g>
	<path class="st0" d="M5.9,264.8c0.3,2.4,0.9,4.2,1.9,5.3c1.7,1.9,5,2.8,9.6,2.8c2.8,0,5-0.4,6.6-1.2s2.4-2,2.4-3.6
		c0-1.5-0.7-2.8-1.9-3.5c-1.3-0.8-6.1-2.2-14.5-4.1c-6-1.5-10.3-3.4-12.8-5.6c-2.4-2.2-3.7-5.4-3.7-9.6c0-4.9,1.9-9.1,5.8-12.7
		c3.9-3.5,9.3-5.3,16.3-5.3c6.7,0,12.1,1.3,16.3,4s6.6,7.2,7.2,13.7h-14c-0.2-1.8-0.7-3.2-1.5-4.2c-1.5-1.9-4.1-2.8-7.8-2.8
		c-3,0-5.2,0.4-6.5,1.4c-1.3,0.9-1.9,2-1.9,3.3c0,1.6,0.7,2.8,2,3.4c1.4,0.7,6.2,2,14.5,3.9c5.5,1.3,9.7,3.3,12.4,5.9
		c2.7,2.7,4.1,6,4.1,10c0,5.3-2,9.6-5.9,12.9c-3.9,3.3-10,5-18.2,5c-8.4,0-14.5-1.8-18.6-5.3c-4-3.5-6-8-6-13.5L5.9,264.8L5.9,264.8
		z"/>
	<path class="st0" d="M41,240.5v-9.9h7.4v-14.9h13.8v14.9h8.7v9.9h-8.7v28.1c0,2.2,0.3,3.5,0.8,4.1c0.6,0.5,2.3,0.8,5,0.8
		c0.4,0,0.9,0,1.4,0c0.4,0,0.9-0.1,1.4-0.1v10.4l-6.6,0.3c-6.6,0.2-11.1-0.9-13.4-3.4c-1.5-1.6-2.3-4.1-2.3-7.4v-32.7L41,240.5
		L41,240.5z"/>
	<path class="st0" d="M105.1,228.8c0.2,0,0.6,0.1,1.2,0.1v14.3c-0.9-0.1-1.7-0.2-2.3-0.2c-0.7-0.1-1.3-0.1-1.7-0.1
		c-5.6,0-9.3,1.8-11.3,5.5c-1.1,2-1.6,5.2-1.6,9.5v25.4h-14v-53.2h13.3v9.3c2.2-3.5,4-6,5.6-7.2c2.6-2.2,6-3.3,10.2-3.3
		C104.7,228.8,104.8,228.8,105.1,228.8z"/>
	<path class="st0" d="M108.8,230.1H123v53.2h-14.2V230.1z"/>
	<path class="st0" d="M-55.2,230.1H-41v53.2h-14.2V230.1z"/>
	<path class="st0" d="M-55.2,213.4H-41v11.4h-14.2V213.4z"/>
	<path class="st0" d="M195.7,230.2c2.3,0.9,4.3,2.5,6.2,4.8c1.5,1.9,2.5,4.1,3,6.9c0.3,1.8,0.4,4.4,0.4,7.9l-0.1,33.6H191v-34
		c0-2-0.3-3.6-1-5c-1.3-2.4-3.5-3.7-6.9-3.7c-3.9,0-6.5,1.6-8,4.8c-0.7,1.7-1.2,3.7-1.2,6.1v31.7h-14v-31.7c0-3.2-0.3-5.4-1-6.9
		c-1.2-2.5-3.4-3.9-6.9-3.9c-4,0-6.6,1.3-8,3.9c-0.7,1.4-1.2,3.6-1.2,6.5v32h-14.1v-53h13.6v7.8c1.7-2.8,3.3-4.8,4.9-5.9
		c2.7-2.1,6.2-3.2,10.5-3.2c4.1,0,7.4,0.9,9.8,2.7c2,1.7,3.5,3.8,4.6,6.4c1.8-3.2,4.1-5.4,6.8-6.9c2.9-1.4,6-2.2,9.6-2.2
		C191.1,228.8,193.4,229.3,195.7,230.2z"/>
	<path class="st0" d="M275.9,230.2c2.3,0.9,4.3,2.5,6.2,4.8c1.5,1.9,2.5,4.1,3,6.9c0.3,1.8,0.4,4.4,0.4,7.9l-0.1,33.6h-14.2v-34
		c0-2-0.3-3.6-1-5c-1.3-2.4-3.5-3.7-6.9-3.7c-3.9,0-6.5,1.6-8,4.8c-0.7,1.7-1.2,3.7-1.2,6.1v31.7h-14v-31.7c0-3.2-0.3-5.4-1-6.9
		c-1.2-2.5-3.4-3.9-6.9-3.9c-4,0-6.6,1.3-8,3.9c-0.7,1.4-1.2,3.6-1.2,6.5v32h-14.1v-53h13.5v7.8c1.7-2.8,3.3-4.8,4.9-5.9
		c2.7-2.1,6.2-3.2,10.5-3.2c4.1,0,7.4,0.9,9.8,2.7c2,1.7,3.5,3.8,4.6,6.4c1.8-3.2,4.1-5.4,6.8-6.9c2.9-1.4,6-2.2,9.6-2.2
		C271.3,228.8,273.7,229.3,275.9,230.2z"/>
	<path class="st1" d="M94.7,220.9c0,0,6.9-7.7,20.5-7.7c12.2,0,18.6,7.9,18.6,7.9"/>
</g>
</svg>
