<?xml version="1.0" encoding="utf-8"?>
<!-- Generator: Adobe Illustrator 19.1.0, SVG Export Plug-In . SVG Version: 6.00 Build 0)  -->
<svg version="1.1" xmlns="http://www.w3.org/2000/svg" xmlns:xlink="http://www.w3.org/1999/xlink" x="0px" y="0px"
	 viewBox="-68.7 197 480 108" style="enable-background:new -68.7 197 480 108;" xml:space="preserve">
<style type="text/css">
	.st0{display:none;}
	.st1{display:inline;}
	.st2{fill:#FFFFFF;}
	.st3{display:inline;fill:#FFFFFF;}
	.st4{fill:#2DB9E7;}
	.st5{fill:none;stroke:#2DB9E7;stroke-width:12;stroke-miterlimit:10;}
	.st6{fill:#FFFFFF;stroke:#FFFFFF;stroke-miterlimit:10;}
	.st7{fill:#FFFFFF;stroke:#FFFFFF;stroke-width:0.5;stroke-miterlimit:10;}
</style>
<g id="Layer_2" class="st0">
	<g class="st1">
		<path d="M276.5,145.1c5,0,9.1,0,13.1,0c0-14.5,0.6-28.8-0.3-43c-0.4-5.9-5.5-9.7-11.8-10.8c-8.2-1.4-14.9,1-20,7.7
			c-9.9-11.8-20.7-9.7-30-1.4c-0.3-0.6-0.7-1.1-0.7-1.6c-0.6-7.2-6.1-3.4-9.5-4c-4-0.6-3.8,2.6-3.8,5.4c0,14.3-0.1,28.7,0.1,43
			c0,1.6,1.7,4.4,3,4.6c3.2,0.7,6.7,0.2,10.5,0.2c0-6.3,0-11.7,0-17c0-5.9-0.2-11.9,0.3-17.8c0.5-5.5,4.4-8.4,9.7-8
			c5.2,0.4,7.7,3.4,7.7,8.5c0.1,5.9,0,11.9,0,17.8c0,5.4,0,10.8,0,16.1c5.2,0,9.2,0,13.8,0c0-5.5,0-10.6,0-15.7
			c0-5.3-0.1-10.7,0.2-16c0.4-7.4,3.8-11,9.8-10.8c5.4,0.2,7.8,3.4,7.8,10.9C276.5,123.7,276.5,134.1,276.5,145.1z M177.2,97.3
			c-5.8-2.4-10.8-5.9-15.8-6c-5.1-0.1-10.3,3.2-15.5,5c0.2-6.5-5.4-4.3-9.5-4.4c-5.5-0.2-4.1,4.1-4.1,7c-0.1,11.7-0.1,23.3-0.1,35
			c0,12.1,0,12.1,12,11.1c0.3,0,0.7-0.4,1.6-1c0-2,0-4.4,0-6.8c0-8.6-0.1-17.2,0.1-25.8c0.2-5.8,3.5-8.8,8.8-9
			c5.5-0.1,8.3,2.6,8.7,8.8c0.2,2.9,0.1,5.7,0.1,8.6c0,8.3,0,16.7,0,25.1c5,0,9,0,13.5,0c0.1-2.3,0.3-4.3,0.3-6.3
			c0-8.2-0.2-16.4,0.2-24.6c0.1-2.9,0.6-6.9,2.6-8.4c2.5-2,6.9-3.4,9.7-2.5c2.3,0.7,4.9,5,5,7.9c0.6,11.2,0.2,22.4,0.2,34.4
			c3.6,0,6.5,0.5,9.2-0.2c1.7-0.5,4.3-2.6,4.3-4c0.4-11.2,0.8-22.5,0.2-33.7c-0.8-13.1-9.9-19.3-22.4-15.6
			C182.7,93,179.5,95.9,177.2,97.3z M562,144.4c-76.8,0-153.6,0-230.5,0.1c-2,0-3.9,1.4-5.9,2.2c2,0.8,3.9,1.6,5.9,2.4
			c0.4,0.1,0.8,0,1.2,0c81.5,0,163.1,0,244.6,0c71.7,0,143.4,0,215.1-0.1c2,0,3.9-1.5,5.9-2.2c-2-0.8-3.9-1.7-5.9-2.3
			c-0.9-0.3-2-0.1-3.1-0.1C713.6,144.4,637.8,144.4,562,144.4z M-5.8,127.7c-0.4,7,2.7,12.5,9.2,15.2c9.6,4,19.5,3.9,29.2,0
			c1.8-0.7,3.6-2.1,4.9-3.5c8.3-8.9,5.1-21.2-6.8-25.5c-5.9-2.1-12.2-3.3-18.2-5.2c-1.4-0.5-3-2.2-3.4-3.7c-0.3-1.1,0.9-3.1,2.1-3.9
			c3.3-2.5,11.7-2.2,13.7,1.1c4.1,6.8,9.7,3.4,15.4,3.9c-0.7-7.4-3.8-12.7-10-14.2c-6.4-1.6-13.3-2.4-19.8-1.6
			c-9.3,1.1-15.1,8.4-15.3,16.5c-0.1,7.7,3.4,11.5,13.8,14.6c5.1,1.5,10.3,2.6,15.3,4.4c4.4,1.5,5.2,5.3,2.1,7.8
			c-3.7,2.9-14.4,2.9-16.6-1.1C5.9,125,0,127.6-5.8,127.7z M72.3,136.3c-3.5-0.8-8,0.4-7.9-5.5c0.2-8.2-0.1-16.4,0.2-24.6
			c0.1-1.5,1.9-4.1,3-4.1c7.8-0.1,5.8-4.6,4.8-9.6c-8.2,1.8-8.7-3.1-8-8.8c0.7-5.6-2.3-6.3-6.9-6.3c-4.6,0-7.6,0.7-7,6.3
			C51.1,89,51.2,94,44,93.4c-2.8,7,1.1,9.1,7.1,9.6c0,10,0,19.6,0,29.2c0,10.9,2.7,13.7,13.7,14C72.9,146.4,73.7,145.5,72.3,136.3z
			 M90.3,91.9c-2.8,0-5.4-0.5-7.6,0.2c-1.8,0.6-4.3,2.7-4.3,4.1c-0.3,15.1-0.3,30.2,0,45.4c0,1.3,2.1,3.3,3.5,3.6
			c3.1,0.5,6.3,0.2,10,0.2c0-8.4,0-15.7,0-23.1c0-13.9,2.2-16.4,15.7-17.9c0.3,0,0.6-0.4,1.1-0.8c0-3.9,0-7.9,0-12
			c-7.8-1.9-12.1,3.2-17,8.4C91.1,96.9,90.8,94.9,90.3,91.9z M355.3,90.1c0.9,0.3,1.9,0.5,2.8,0.8c-0.3,5.4-0.8,10.7-0.7,16.1
			c0.1,2.4,1.4,4.8,2.2,7.1c2.3-0.8,4.6-1.6,5.6-2c-0.6-5.3-1.6-9.4-1.4-13.4c0.1-3.8,1.5-7.6,1.9-11.4c0.2-2-0.4-5.7-1.1-5.8
			c-2.3-0.4-5.1,0-7.1,1.1c-2.6,1.5-4.6,4-6.6,5.9c-0.9-2.8-1-6.4-2.3-6.8c-6.4-2.4-8.8,3.9-11.8,6.6c-1.4-3.1-2.2-6.5-4.2-8.7
			c-0.9-0.9-4.5,0.7-5.1,0.8c0,11.5,0,21.5,0,31.6c0.7,0.2,1.5,0.3,2.2,0.5c7.3-5.3,5.4-16.7,13.5-22.4c-0.6,7.2-1.1,13.7-1.6,20.1
			c5.2,1.7,6.3-0.7,7.4-4.4C350.4,100.5,353.1,95.4,355.3,90.1z M125.3,145c0.2-1.4,0.6-2.6,0.6-3.8c0-14.7-0.2-29.5,0.1-44.2
			c0.1-6.1-3.7-5-7.3-5.2c-3.9-0.1-7.2-0.4-7,5.5c0.4,12.5,0.1,25,0.1,37.4c0,3.4,0,6.8,0,10.2C117,145,121,145,125.3,145z
			 M449.1,112.6c10.4-1.3,9.3-13,16.8-17.2c0.4,3.9,0.4,7.6,1.1,11.1c0.4,1.7,2.1,3,3.2,4.6c1.4-1.2,3.3-2.1,4.1-3.6
			c4.9-9.4,9.5-19,14.2-28.5c-4.8-2.2-7.6-0.9-9.7,4.7c-1.3,3.5-3.3,6.7-4.9,10c-0.4-0.1-0.8-0.3-1.2-0.4c0-5,0-10,0-15.4
			c-10.9,0.4-9.4,12.7-16.8,15.8c0-2.7,0.3-5.4-0.1-8c-0.3-2.2-1.3-6.1-2.2-6.2c-3.6-0.3-8.3-2.1-10.2,4c2.1,0.5,4,0.9,5.8,1.3
			C449.1,93.9,449.1,102.8,449.1,112.6z M-54.1,145.3c4.1,0,7.2,0.3,10.1-0.1c1.3-0.2,3.4-2,3.4-3.1c0.2-15.5,0.3-31,0.1-46.5
			c-0.1-5.7-5.1-3.2-8.1-3.6c-2.6-0.3-5.5-0.5-5.5,3.7C-54.1,111.9-54.1,128.2-54.1,145.3z M697,86.4c0.7-6.3,1.5-13,1.9-19.7
			c0.1-1.2-1.9-2.4-2.9-3.7c-1.4,1.2-3.6,2.1-4,3.6c-0.8,3.1-0.7,6.4-0.9,9.7c-0.6,9.8-1.4,19.6-1.6,29.3c0,1.8,2.5,3.6,3.9,5.4
			c0.7-1.7,2-3.3,2.1-5.1c0.5-6.4,3-11.6,7.6-15.7c0.7,0.2,1.5,0.4,2.2,0.6c-2.1,9.1-4.1,18.2-6.2,27.1c3.7,0.3,8.7-5.2,9.9-11.8
			c1.2-6.6,2.4-13.2,3.5-19.7c0.8-4.4-1.7-7.2-5.9-5.9C703.2,81.7,700.2,84.4,697,86.4z M753.4,110.7c-3.9-9.1,0.9-14.4,6.2-19.4
			c-0.4,6.3-1,12.6-0.9,18.9c0,1.1,3.1,3.3,4.3,3c1.5-0.3,3.3-2.7,3.5-4.3c0.9-7.5,1.3-15,1.7-22.5c0.1-1.6-0.1-4.1-1-4.7
			c-1.4-0.8-3.9-0.8-5.4-0.1c-2.1,1-3.6,3-5.7,4.7c-1.2-8-4.9-9.2-11.2-4.4c5.2,9.9-1.2,20.1,0.4,30.6
			C748,111.9,750.3,111.4,753.4,110.7z M383.3,98.5c-1.8-4.7-5.4-9.4-1.1-14.4c0.4-0.4-0.8-3.2-1.4-3.3c-3.7-0.3-7.5-0.2-11.5-0.2
			c5.4,15.5,12.4,29.1,0.9,43.3c5.5,0.6,9.7-2.9,12.7-9c5.3-10.7,11-21.2,16.4-31.8c0.5-1,0.6-2.2,0.9-3.5c-5.5-1-9.4-0.6-11.3,5.5
			C387.7,89.7,385.3,94.1,383.3,98.5z M786.7,91.6c0,7.5,0,14.6,0,21.8c3.6,0.1,8.5,0.9,7.1-4.3c-2.1-7.9,0.1-15,1.5-22.5
			c0.3-1.7,0-4.4-1.1-5.1c-1.3-0.8-3.9-0.4-5.4,0.4c-2,1-3.6,2.8-4.8,3.9c-1.5-2.4-2.4-5.5-4-5.9c-2.5-0.6-5.5,0.6-8.1,1
			c5.1,11.1-0.5,21,0.5,31.6c2.7-0.6,5.2-1.1,8.2-1.7C777,102,781.2,96.6,786.7,91.6z M492.6,112.5c2.6-0.6,5-1.1,7.7-1.7
			c-2.7-8.4,0.5-14,6.3-19.1c0,7.7,0,14.7,0,21.6c7.9,0.3,8.2-0.2,6-7.1c-0.3-1.1-0.4-2.5-0.2-3.6c0.9-5.4,2.2-10.7,3-16
			c0.2-1.7-0.2-4.4-1.3-5.2c-1.2-0.8-3.9-0.3-5.4,0.6c-2.1,1.1-3.6,3.1-4.9,4.2c-1.3-2.3-2.1-5.6-3.9-6.3c-2.3-0.8-5.3,0.6-8,1
			C497,91.9,491.3,101.6,492.6,112.5z M737.9,79.7c-12.3,1.3-17.4,5.8-20.6,19.3c-0.9,3.7-0.7,9.9,1.5,11.5c4,2.9,7.5-1.4,10.3-4.8
			c0.3-0.4,1-0.5,1.4-0.7c0.6,2.3,0.5,5.2,1.9,6.3c1.7,1.4,4.6,1.3,7,1.5c0.2,0,1-2.6,0.8-3.9c-0.6-5.6-1.7-11.2-2.3-16.9
			C737.6,88,737.9,83.8,737.9,79.7z M140.6,78.7c-10.9-12.9-36.2-12.9-46.4-0.2c3.7,5.3,7.7,7.9,14.5,4c5.4-3.1,12.3-3.5,17.7,0
			C133.2,86.8,136.7,83.3,140.6,78.7z M420.1,97.9c0.4,0.2,0.8,0.3,1.2,0.5c0,1-0.4,2.2,0.1,3c1.8,3.3,3.2,8,6,9.3
			c4.6,2.1,9.3-1,10.7-5.6c2-6.8,2.9-14,3.6-21.1c0.1-1.3-2.9-4.4-4-4.2c-4,0.7-9,1.4-11.3,4C423.2,87.6,422.1,93.2,420.1,97.9z
			 M805,100.5c7.3-1,11.4-4.9,12.3-12.8c0.3-2.5-1.1-6.2-3-7.5c-1.3-0.9-5.5,0.5-7.2,2.1c-7.1,6.5-8.7,15.2-6.8,24.1
			c0.5,2.3,5.1,4.9,8.1,5.3c3.2,0.4,6-2.2,4.4-6.7c-2.2,0.1-4.1,0.2-6.3,0.3C806,103.5,805.5,102,805,100.5z M834.6,62.3
			c-5.2-0.6-7.1,2.4-7.6,6.7c-1,8.7-1.7,17.4-2.5,26.1c-0.5,5.2-0.8,10.4-1.2,15.7c7.6,1.2,6.7-4.4,7.1-8.1
			C831.9,89.4,833.1,76.1,834.6,62.3z M684.9,89.5c0.5-3.5,0.9-6,1.3-8.6c-3.2,0.1-6.9-0.7-9.6,0.5c-2.4,1.1-4.7,4.2-5.6,6.8
			c-1.5,4.8-2.5,9.9-2.5,14.9c0,2.4,2.2,5.7,4.4,7c2,1.2,5.3,0.3,8.1,0.3c0.2-0.8,0.5-1.6,0.7-2.4c-2.2-1.4-4.5-2.8-7.1-4.4
			c0.1-1.2,0.2-3,0.4-4.8c0.2-1.8,0.7-3.6,0.8-5.4C676.1,86.1,677.4,85.3,684.9,89.5z M-54.6,85.1c0.6,0.6,1.2,1.3,1.7,1.9
			c4.1-0.9,8.3-1.5,12-3.2c0.8-0.4,0.4-6.8-0.5-7.1c-3.5-1.1-7.9-1.9-11-0.6C-54.1,76.8-53.9,82-54.6,85.1z"/>
		<path class="st2" d="M276.5,145.1c0-11,0-21.4,0-31.8c0-7.5-2.4-10.7-7.8-10.9c-6-0.2-9.4,3.4-9.8,10.8c-0.3,5.3-0.2,10.6-0.2,16
			c0,5.1,0,10.2,0,15.7c-4.6,0-8.6,0-13.8,0c0-5.3,0-10.7,0-16.1c0-5.9,0-11.9,0-17.8c0-5.1-2.5-8.1-7.7-8.5c-5.3-0.4-9.2,2.6-9.7,8
			c-0.5,5.9-0.2,11.9-0.3,17.8c0,5.3,0,10.6,0,17c-3.8,0-7.3,0.5-10.5-0.2c-1.3-0.3-3-3-3-4.6c-0.2-14.3-0.1-28.7-0.1-43
			c0-2.7-0.1-6,3.8-5.4c3.3,0.5,8.9-3.3,9.5,4c0,0.5,0.5,1.1,0.7,1.6c9.3-8.3,20.1-10.4,30,1.4c5-6.7,11.8-9.1,20-7.7
			c6.4,1.1,11.5,4.9,11.8,10.8c0.9,14.2,0.3,28.4,0.3,43C285.6,145.1,281.5,145.1,276.5,145.1z"/>
		<path class="st2" d="M177.2,97.3c2.3-1.4,5.5-4.3,9.2-5.4c12.6-3.7,21.7,2.4,22.4,15.6c0.6,11.2,0.2,22.5-0.2,33.7
			c-0.1,1.5-2.6,3.6-4.3,4c-2.6,0.7-5.6,0.2-9.2,0.2c0-12,0.3-23.2-0.2-34.4c-0.1-2.8-2.7-7.2-5-7.9c-2.8-0.9-7.3,0.5-9.7,2.5
			c-1.9,1.5-2.4,5.5-2.6,8.4c-0.3,8.2-0.1,16.4-0.2,24.6c0,2-0.2,4-0.3,6.3c-4.5,0-8.5,0-13.5,0c0-8.5,0-16.8,0-25.1
			c0-2.9,0.1-5.7-0.1-8.6c-0.4-6.2-3.2-8.9-8.7-8.8c-5.3,0.1-8.7,3.2-8.8,9c-0.3,8.6-0.1,17.2-0.1,25.8c0,2.4,0,4.8,0,6.8
			c-1,0.6-1.3,1-1.6,1c-12,1-12,1-12-11.1c0-11.7-0.1-23.3,0.1-35c0-2.9-1.4-7.2,4.1-7c4.1,0.2,9.7-2.1,9.5,4.4
			c5.1-1.8,10.3-5.1,15.5-5C166.4,91.4,171.4,95,177.2,97.3z"/>
		<path class="st2" d="M562,144.4c75.8,0,151.6,0,227.4,0c1,0,2.1-0.2,3.1,0.1c2,0.6,3.9,1.5,5.9,2.3c-2,0.8-3.9,2.2-5.9,2.2
			c-71.7,0.1-143.4,0.1-215.1,0.1c-81.5,0-163.1,0-244.6,0c-0.4,0-0.9,0.1-1.2,0c-2-0.8-3.9-1.6-5.9-2.4c2-0.8,3.9-2.2,5.9-2.2
			C408.4,144.4,485.2,144.4,562,144.4z"/>
		<path class="st2" d="M-5.8,127.7c5.7-0.2,11.6-2.7,15.6,4.8c2.2,4,12.9,4,16.6,1.1c3.1-2.5,2.3-6.3-2.1-7.8
			c-5-1.7-10.2-2.8-15.3-4.4c-10.4-3.2-13.9-7-13.8-14.6c0.2-8.1,6-15.4,15.3-16.5c6.5-0.8,13.4,0,19.8,1.6c6.2,1.5,9.3,6.8,10,14.2
			c-5.7-0.5-11.3,2.9-15.4-3.9c-2-3.3-10.4-3.6-13.7-1.1c-1.1,0.9-2.3,2.8-2.1,3.9c0.4,1.5,1.9,3.2,3.4,3.7c6,2,12.3,3.1,18.2,5.2
			c11.9,4.3,15,16.6,6.8,25.5c-1.4,1.5-3.1,2.8-4.9,3.5c-9.7,4-19.6,4-29.2,0C-3.1,140.2-6.2,134.7-5.8,127.7z"/>
		<path class="st2" d="M72.3,136.3c1.4,9.2,0.7,10.1-7.5,9.9c-10.9-0.3-13.7-3.1-13.7-14c0-9.6,0-19.2,0-29.2
			c-6.1-0.5-9.9-2.6-7.1-9.6c7.2,0.6,7.1-4.4,6.5-9.6c-0.6-5.6,2.4-6.3,7-6.3c4.6,0,7.7,0.7,6.9,6.3c-0.7,5.7-0.2,10.6,8,8.8
			c1,4.9,2.9,9.5-4.8,9.6c-1.1,0-3,2.6-3,4.1c-0.3,8.2,0,16.4-0.2,24.6C64.2,136.7,68.7,135.5,72.3,136.3z"/>
		<path class="st2" d="M90.3,91.9c0.5,3,0.8,5,1.2,8c5-5.1,9.3-10.3,17-8.4c0,4,0,8,0,12c-0.4,0.3-0.7,0.7-1.1,0.8
			c-13.5,1.5-15.7,4-15.7,17.9c0,7.3,0,14.7,0,23.1c-3.7,0-6.9,0.4-10-0.2c-1.4-0.2-3.5-2.3-3.5-3.6c-0.2-15.1-0.3-30.2,0-45.4
			c0-1.5,2.5-3.6,4.3-4.1C84.9,91.3,87.5,91.9,90.3,91.9z"/>
		<path class="st2" d="M355.3,90.1c-2.2,5.2-4.9,10.4-6.6,15.8c-1.1,3.7-2.2,6.1-7.4,4.4c0.5-6.3,1-12.9,1.6-20.1
			c-8.1,5.7-6.1,17.1-13.5,22.4c-0.7-0.2-1.5-0.3-2.2-0.5c0-10,0-20,0-31.6c0.7-0.1,4.3-1.7,5.1-0.8c2.1,2.2,2.9,5.7,4.2,8.7
			c3-2.8,5.4-9,11.8-6.6c1.3,0.5,1.4,4.1,2.3,6.8c2.1-1.9,4.1-4.4,6.6-5.9c2-1.1,4.8-1.5,7.1-1.1c0.7,0.1,1.3,3.8,1.1,5.8
			c-0.4,3.8-1.8,7.6-1.9,11.4c-0.1,4,0.8,8,1.4,13.4c-1,0.4-3.3,1.2-5.6,2c-0.8-2.4-2.1-4.7-2.2-7.1c-0.1-5.4,0.4-10.7,0.7-16.1
			C357.2,90.7,356.3,90.4,355.3,90.1z"/>
		<path class="st2" d="M125.3,145c-4.3,0-8.3,0-13.4,0c0-3.5,0-6.8,0-10.2c0-12.5,0.3-25-0.1-37.4c-0.2-5.9,3.1-5.6,7-5.5
			c3.6,0.1,7.4-0.9,7.3,5.2c-0.3,14.7-0.1,29.5-0.1,44.2C125.9,142.4,125.6,143.6,125.3,145z"/>
		<path class="st2" d="M449.1,112.6c0-9.8,0-18.7,0-27.9c-1.8-0.4-3.6-0.8-5.8-1.3c1.9-6,6.7-4.2,10.2-4c0.9,0.1,1.9,4,2.2,6.2
			c0.4,2.6,0.1,5.3,0.1,8c7.5-3.1,6-15.5,16.8-15.8c0,5.4,0,10.4,0,15.4c0.4,0.1,0.8,0.3,1.2,0.4c1.7-3.3,3.6-6.5,4.9-10
			c2.1-5.6,4.9-6.8,9.7-4.7c-4.7,9.5-9.4,19.1-14.2,28.5c-0.8,1.5-2.7,2.4-4.1,3.6c-1.1-1.5-2.8-2.9-3.2-4.6
			c-0.7-3.5-0.8-7.2-1.1-11.1C458.5,99.6,459.6,111.4,449.1,112.6z"/>
		<path class="st2" d="M-54.1,145.3c0-17.1,0-33.4,0-49.7c0-4.2,2.9-4,5.5-3.7c3,0.4,8-2.1,8.1,3.6c0.3,15.5,0.2,31-0.1,46.5
			c0,1.1-2.1,2.9-3.4,3.1C-47,145.6-50.1,145.3-54.1,145.3z"/>
		<path class="st2" d="M697,86.4c3.2-2,6.2-4.7,9.6-5.8c4.2-1.3,6.6,1.5,5.9,5.9c-1.1,6.6-2.3,13.2-3.5,19.7
			c-1.2,6.6-6.2,12.1-9.9,11.8c2-8.9,4.1-18,6.2-27.1c-0.7-0.2-1.5-0.4-2.2-0.6c-4.6,4.1-7.2,9.3-7.6,15.7c-0.1,1.7-1.4,3.4-2.1,5.1
			c-1.4-1.8-3.9-3.6-3.9-5.4c0.2-9.8,1-19.6,1.6-29.3c0.2-3.2,0.1-6.6,0.9-9.7c0.4-1.4,2.6-2.4,4-3.6c1,1.2,3,2.5,2.9,3.7
			C698.5,73.4,697.6,80.1,697,86.4z"/>
		<path class="st2" d="M753.4,110.7c-3.1,0.7-5.5,1.2-8.2,1.8c-1.6-10.5,4.8-20.7-0.4-30.6c6.3-4.8,10-3.6,11.2,4.4
			c2-1.8,3.6-3.8,5.7-4.7c1.5-0.7,4-0.7,5.4,0.1c1,0.6,1.1,3.1,1,4.7c-0.4,7.5-0.8,15-1.7,22.5c-0.2,1.6-2,4-3.5,4.3
			c-1.2,0.3-4.3-1.9-4.3-3c-0.1-6.3,0.5-12.5,0.9-18.9C754.4,96.4,749.5,101.6,753.4,110.7z"/>
		<path class="st2" d="M383.3,98.5c1.9-4.4,4.3-8.8,5.7-13.4c1.8-6,5.8-6.5,11.3-5.5c-0.3,1.3-0.4,2.5-0.9,3.5
			C394,93.8,388.3,104.3,383,115c-3,6.1-7.1,9.6-12.7,9c11.6-14.2,4.5-27.8-0.9-43.3c4,0,7.8-0.2,11.5,0.2c0.6,0,1.7,2.9,1.4,3.3
			C377.9,89.1,381.6,93.8,383.3,98.5z"/>
		<path class="st2" d="M786.7,91.6c-5.4,5-9.6,10.4-6.1,19.1c-2.9,0.6-5.5,1.2-8.2,1.7c-1.1-10.7,4.5-20.6-0.5-31.6
			c2.7-0.4,5.6-1.6,8.1-1c1.6,0.4,2.5,3.5,4,5.9c1.2-1,2.8-2.9,4.8-3.9c1.6-0.8,4.2-1.2,5.4-0.4c1.1,0.7,1.4,3.5,1.1,5.1
			c-1.3,7.4-3.6,14.5-1.5,22.5c1.4,5.3-3.5,4.5-7.1,4.3C786.7,106.1,786.7,99.1,786.7,91.6z"/>
		<path class="st2" d="M492.6,112.5c-1.3-10.9,4.4-20.6-0.6-31.6c2.6-0.4,5.7-1.8,8-1c1.8,0.7,2.6,4,3.9,6.3c1.2-1.1,2.8-3,4.9-4.2
			c1.5-0.8,4.2-1.4,5.4-0.6c1.1,0.7,1.6,3.5,1.3,5.2c-0.8,5.4-2,10.7-3,16c-0.2,1.2-0.1,2.5,0.2,3.6c2.1,6.9,1.8,7.3-6,7.1
			c0-7,0-14,0-21.6c-5.8,5.1-9,10.8-6.3,19.1C497.6,111.4,495.2,111.9,492.6,112.5z"/>
		<path class="st2" d="M737.9,79.7c0,4.1-0.3,8.2,0.1,12.3c0.5,5.7,1.6,11.3,2.3,16.9c0.2,1.3-0.7,4-0.8,3.9c-2.4-0.2-5.3-0.2-7-1.5
			c-1.4-1.1-1.3-4-1.9-6.3c-0.4,0.2-1.1,0.3-1.4,0.7c-2.8,3.3-6.3,7.7-10.3,4.8c-2.2-1.6-2.4-7.8-1.5-11.5
			C720.5,85.5,725.6,81,737.9,79.7z M731,90.5c-1.1-0.5-2.1-1-3.2-1.4c-2,4.5-3.9,9.1-5.9,13.6c0.8,0.4,1.5,0.7,2.3,1.1
			C726.4,99.4,728.7,94.9,731,90.5z"/>
		<path class="st2" d="M140.6,78.7c-3.8,4.6-7.4,8.1-14.2,3.8c-5.4-3.4-12.2-3.1-17.7,0c-6.8,3.9-10.8,1.3-14.5-4
			C104.4,65.8,129.7,65.8,140.6,78.7z"/>
		<path class="st2" d="M420.1,97.9c2-4.8,3.1-10.3,6.3-14c2.3-2.7,7.3-3.4,11.3-4c1.1-0.2,4.2,2.9,4,4.2c-0.7,7.1-1.6,14.3-3.6,21.1
			c-1.4,4.6-6.1,7.7-10.7,5.6c-2.9-1.3-4.2-6-6-9.3c-0.4-0.8-0.1-2-0.1-3C420.9,98.3,420.5,98.1,420.1,97.9z M432.7,85.9
			c-6.5,9-7.1,14.4-2.3,19C435.4,100.2,436.4,93.1,432.7,85.9z"/>
		<path class="st2" d="M805,100.5c0.5,1.6,0.9,3.1,1.5,4.8c2.1-0.1,4.1-0.2,6.3-0.3c1.6,4.5-1.2,7-4.4,6.7c-3-0.3-7.6-2.9-8.1-5.3
			c-1.9-8.9-0.3-17.6,6.8-24.1c1.7-1.6,5.9-3,7.2-2.1c1.9,1.3,3.3,5,3,7.5C816.4,95.5,812.3,99.4,805,100.5z"/>
		<path class="st2" d="M834.6,62.3c-1.4,13.8-2.6,27.1-4.2,40.3c-0.4,3.7,0.5,9.3-7.1,8.1c0.4-5.3,0.7-10.5,1.2-15.7
			c0.8-8.7,1.6-17.4,2.5-26.1C827.4,64.6,829.4,61.6,834.6,62.3z"/>
		<path class="st2" d="M684.9,89.5c-7.5-4.3-8.7-3.5-9.1,3.8c-0.1,1.8-0.6,3.6-0.8,5.4c-0.2,1.8-0.3,3.6-0.4,4.8
			c2.6,1.6,4.9,3,7.1,4.4c-0.2,0.8-0.5,1.6-0.7,2.4c-2.7,0-6,0.9-8.1-0.3c-2.2-1.3-4.4-4.6-4.4-7c0-5,1-10.1,2.5-14.9
			c0.8-2.7,3.1-5.8,5.6-6.8c2.7-1.2,6.4-0.4,9.6-0.5C685.8,83.5,685.4,86.1,684.9,89.5z"/>
		<path class="st2" d="M-54.6,85.1c0.7-3.2,0.5-8.3,2.2-9c3.2-1.3,7.5-0.5,11,0.6c0.9,0.3,1.3,6.7,0.5,7.1c-3.7,1.7-8,2.2-12,3.2
			C-53.5,86.4-54,85.7-54.6,85.1z"/>
		<path d="M731,90.5c-2.3,4.4-4.5,8.8-6.8,13.2c-0.8-0.4-1.5-0.7-2.3-1.1c2-4.5,3.9-9.1,5.9-13.6C728.8,89.6,729.9,90.1,731,90.5z"
			/>
	</g>
	<path class="st1" d="M537,127.9c40.3,0,80.6,0,121.3,0c0-25.2,0-50.2,0-75.6c-40.5,0-80.8,0-121.3,0C537,77.5,537,102.4,537,127.9z
		"/>
	<path class="st1" d="M596.5,138.2c9.4,0,18.8,0.2,28.2-0.1c1.9-0.1,3.8-1.9,5.6-2.9c-1.8-1.1-3.6-3.1-5.4-3.2c-19-0.2-38-0.2-57,0
		c-1.8,0-3.6,2.1-5.3,3.2c1.9,1,3.8,2.8,5.7,2.9C577.7,138.4,587.1,138.2,596.5,138.2z"/>
	<path class="st3" d="M537,127.9c0-25.5,0-50.4,0-75.6c40.5,0,80.7,0,121.3,0c0,25.4,0,50.4,0,75.6
		C617.6,127.9,577.3,127.9,537,127.9z M651.7,121.8c0-21.4,0-42.3,0-63c-36.4,0-72.4,0-108.2,0c0,21.2,0,42,0,63
		C579.7,121.8,615.5,121.8,651.7,121.8z"/>
	<path class="st3" d="M596.5,138.2c-9.4,0-18.8,0.2-28.2-0.1c-1.9-0.1-3.8-1.9-5.7-2.9c1.8-1.1,3.5-3.2,5.3-3.2c19-0.2,38-0.2,57,0
		c1.8,0,3.6,2.1,5.4,3.2c-1.9,1-3.7,2.9-5.6,2.9C615.3,138.4,605.9,138.2,596.5,138.2z"/>
	<path class="st3" d="M562.8,76.7c-0.9-5,1.2-7.4,5.9-7.2c6.3,0.3,12.6,0.6,18.8,1.3c3.8,0.5,7.4,1.9,11.2,2.7
		c1.3,0.3,2.7-0.1,4.1-0.2c8.6-1.1,9.9,0.3,9.3,9c-0.3,4.7,0.3,9.5,1.9,14.4c4.2-7.8,8.5-15.7,12.7-23.5c-0.5-0.3-0.9-0.7-1.4-1
		c2.5-0.6,5-1.2,9.4-2.3c-1.2,4-1.4,7.2-2.9,9.7c-6.1,10.3-12.6,20.4-19,30.4c-0.6,0.9-2.7,1.7-3.4,1.3c-1.5-0.9-3.5-2.5-3.7-4
		c-0.5-4,0-8.2-0.2-12.3c-0.2-4.1-1.1-8.1-0.9-12.2c0.2-4.6-2.9-5.6-6.1-5.9c-4.8-0.4-9.6-0.1-14.2-0.1c-4.6,11.2,0.6,24.6-8.3,36.1
		c-3.1-5.7-3.7-8.8-2-13.7c2.4-6.9,1.7-14.9,2.5-23.2C571.8,76.2,567.6,76.5,562.8,76.7z"/>
</g>
<g id="Layer_3" class="st0">
	<g class="st1">
		<path class="st4" d="M5.9,264.8c0.3,2.4,0.9,4.2,1.9,5.3c1.7,1.9,5,2.8,9.6,2.8c2.8,0,5-0.4,6.6-1.2s2.4-2,2.4-3.6
			c0-1.5-0.7-2.8-1.9-3.5c-1.3-0.8-6.1-2.2-14.5-4.1c-6-1.5-10.3-3.4-12.8-5.6c-2.4-2.2-3.7-5.4-3.7-9.6c0-4.9,1.9-9.1,5.8-12.7
			c3.9-3.5,9.3-5.3,16.3-5.3c6.7,0,12.1,1.3,16.3,4s6.6,7.2,7.2,13.7h-14c-0.2-1.8-0.7-3.2-1.5-4.2c-1.5-1.9-4.1-2.8-7.8-2.8
			c-3,0-5.2,0.4-6.5,1.4c-1.3,0.9-1.9,2-1.9,3.3c0,1.6,0.7,2.8,2,3.4c1.4,0.7,6.2,2,14.5,3.9c5.5,1.3,9.7,3.3,12.4,5.9
			c2.7,2.7,4.1,6,4.1,10c0,5.3-2,9.6-5.9,12.9c-3.9,3.3-10,5-18.2,5c-8.4,0-14.5-1.8-18.6-5.3c-4-3.5-6-8-6-13.5L5.9,264.8
			L5.9,264.8z"/>
		<path class="st4" d="M41,240.5v-9.9h7.4v-14.9h13.8v14.9h8.7v9.9h-8.7v28.1c0,2.2,0.3,3.5,0.8,4.1c0.6,0.5,2.3,0.8,5,0.8
			c0.4,0,0.9,0,1.4,0c0.4,0,0.9-0.1,1.4-0.1v10.4l-6.6,0.3c-6.6,0.2-11.1-0.9-13.4-3.4c-1.5-1.6-2.3-4.1-2.3-7.4v-32.7L41,240.5
			L41,240.5z"/>
		<path class="st4" d="M105.1,228.8c0.2,0,0.6,0.1,1.2,0.1v14.3c-0.9-0.1-1.7-0.2-2.3-0.2c-0.7-0.1-1.3-0.1-1.7-0.1
			c-5.6,0-9.3,1.8-11.3,5.5c-1.1,2-1.6,5.2-1.6,9.5v25.4h-14v-53.2h13.3v9.3c2.2-3.5,4-6,5.6-7.2c2.6-2.2,6-3.3,10.2-3.3
			C104.7,228.8,104.8,228.8,105.1,228.8z"/>
		<path class="st4" d="M108.8,230.1H123v53.2h-14.2V230.1z"/>
		<path class="st4" d="M-55.2,230.1H-41v53.2h-14.2V230.1z"/>
		<path class="st4" d="M-55.2,213.4H-41v11.4h-14.2V213.4z"/>
		<path class="st4" d="M195.7,230.2c2.3,0.9,4.3,2.5,6.2,4.8c1.5,1.9,2.5,4.1,3,6.9c0.3,1.8,0.4,4.4,0.4,7.9l-0.1,33.6H191v-34
			c0-2-0.3-3.6-1-5c-1.3-2.4-3.5-3.7-6.9-3.7c-3.9,0-6.5,1.6-8,4.8c-0.7,1.7-1.2,3.7-1.2,6.1v31.7h-14v-31.7c0-3.2-0.3-5.4-1-6.9
			c-1.2-2.5-3.4-3.9-6.9-3.9c-4,0-6.6,1.3-8,3.9c-0.7,1.4-1.2,3.6-1.2,6.5v32h-14.1v-53h13.6v7.8c1.7-2.8,3.3-4.8,4.9-5.9
			c2.7-2.1,6.2-3.2,10.5-3.2c4.1,0,7.4,0.9,9.8,2.7c2,1.7,3.5,3.8,4.6,6.4c1.8-3.2,4.1-5.4,6.8-6.9c2.9-1.4,6-2.2,9.6-2.2
			C191.1,228.8,193.4,229.3,195.7,230.2z"/>
		<path class="st4" d="M275.9,230.2c2.3,0.9,4.3,2.5,6.2,4.8c1.5,1.9,2.5,4.1,3,6.9c0.3,1.8,0.4,4.4,0.4,7.9l-0.1,33.6h-14.2v-34
			c0-2-0.3-3.6-1-5c-1.3-2.4-3.5-3.7-6.9-3.7c-3.9,0-6.5,1.6-8,4.8c-0.7,1.7-1.2,3.7-1.2,6.1v31.7h-14v-31.7c0-3.2-0.3-5.4-1-6.9
			c-1.2-2.5-3.4-3.9-6.9-3.9c-4,0-6.6,1.3-8,3.9c-0.7,1.4-1.2,3.6-1.2,6.5v32h-14.1v-53h13.5v7.8c1.7-2.8,3.3-4.8,4.9-5.9
			c2.7-2.1,6.2-3.2,10.5-3.2c4.1,0,7.4,0.9,9.8,2.7c2,1.7,3.5,3.8,4.6,6.4c1.8-3.2,4.1-5.4,6.8-6.9c2.9-1.4,6-2.2,9.6-2.2
			C271.3,228.8,273.7,229.3,275.9,230.2z"/>
		<path class="st5" d="M94.7,220.9c0,0,6.9-7.7,20.5-7.7c12.2,0,18.6,7.9,18.6,7.9"/>
	</g>
</g>
<g id="Layer_4">
	<g>
		<g>
			<g>
				<path class="st6" d="M138.1,265.1c0-22.7,0-45,0-67.5c36.2,0,72.1,0,108.3,0c0,22.6,0,45,0,67.5
					C210.1,265.1,174.1,265.1,138.1,265.1z M240.5,259.7c0-19.1,0-37.8,0-56.2c-32.5,0-64.6,0-96.6,0c0,18.9,0,37.5,0,56.2
					C176.2,259.7,208.1,259.7,240.5,259.7z"/>
				<polygon class="st6" points="218.1,273.8 164.1,273.8 157.8,271.1 164.1,268.5 218.1,268.5 224.4,271 				"/>
			</g>
			<g>
				<path class="st7" d="M-12.5,250v0.2c0,0.2-0.1,0.4-0.4,0.5c-0.7,0.3-1.5,0.7-2.4,1.1c-0.2,0.3-0.6,0.7-1.2,1.1c0,0-0.1,0-0.2,0
					c-0.1,0-0.2,0-0.2,0c-1.4,0-2.2-1.6-2.2-4.7c0-2.5,0-3.9,0.1-4.3c0.4-0.4,0.6-0.9,0.6-1.5c0-0.4,0-1-0.1-1.8s-0.1-1.4-0.1-1.8
					c0-1.4,0.2-2.4,0.7-2.9c0-0.5-0.1-1.6-0.2-3.1c-0.1-1.3-0.2-2.3-0.2-3.1c0-0.8,0-1.6,0.1-2.5c0.2-0.2,0.3-0.5,0.3-1v-0.2
					c-0.7,0-1.3,0.4-2,1.2c0,0.1-0.2,0.2-0.4,0.4c-1.4,0.7-2.3,1.6-2.9,2.5c-1.4,1.9-3.3,4.8-5.8,8.7c-1,1.7-1.6,4.6-1.7,8.9
					c0,0.9-0.2,1.4-0.4,1.4H-35v-0.3c-0.1-1.1,0.1-3,0.5-5.6c0.5-2.9,0.7-4.8,0.7-5.9c0-2.5,0.3-4.3,0.7-5.4l-0.4-5.3
					c-2,0-3.6,1.4-4.7,4.2c-0.2,0.1-0.3,0.3-0.3,0.4c-0.1,0.7-0.4,1.4-0.9,2c-0.5,0.7-0.8,1.1-0.9,1.4c-0.1,0.3-0.2,0.7-0.4,1.2
					l-0.4,0.3c0,0-0.8,1.4-2.3,4.2c-0.3,0-0.7,0.9-1,2.8c-0.4,2.1-0.7,3.4-0.9,3.7c-0.1,0.8-0.3,1.6-0.6,2.6c-1.1,0.1-2.1,0.4-2.9,1
					c-0.3-0.1-0.4-0.5-0.4-1.1c0-0.2,0-0.4,0.1-0.8c0.1-0.4,0.1-0.7,0.1-0.9c0-0.4,0-1,0.1-1.9c0.1-0.9,0.1-1.5,0.1-1.9
					c0-1.3,0-2.1,0.1-2.3c0.4-1.9,0.6-2.8,0.6-2.8c0-2-0.2-4.2-0.6-6.5l0.7-2.2l-0.6-6.1c-0.7-0.8-1.3-1.5-2-2.2v-0.4
					c2-1,3.2-1.5,3.7-1.5c0.9,0,1.5,0.2,2,0.6l1.2,1.6c0.2,1.7,0.2,3.1,0.2,4c0,0.6-0.1,1.5-0.2,2.7c-0.1,1.2-0.2,2.1-0.2,2.6
					c0,0.1,0.1,0.3,0.3,0.6c0.2,0.3,0.3,0.5,0.3,0.6c0,0.2-0.6,0.8-1.7,1.6c0.2,0.5,0.4,0.7,0.7,0.7c0.4-0.3,0.8-0.8,1.4-1.5
					c0-0.5,1.8-3.1,5.2-7.9c1.9-2.6,4.2-3.9,6.9-3.9c1.3,0,1.9,0.7,1.8,2.1v0.4c-0.2,0.2-0.5,0.6-0.7,1v0.9c0,1.2,0,2-0.1,2.3
					l-1,3.2l0.2,2.9l0.5,0.4c1-1.4,2.5-3.4,4.5-6.1c0.1-0.2,0.3-0.6,0.7-1l6.6-6.1h4.2c0.7,0,1,0.5,1,1.6c0,0.5-0.3,1.9-0.9,4.1
					c-0.3,1.3-0.5,2.2-0.6,2.9c-0.3,1.6-0.6,4.1-1,7.3c0,0.8-0.2,2-0.6,3.5l0.6,6.8C-14.3,248.7-13.4,249.3-12.5,250z"/>
				<path class="st7" d="M17.7,220.2v0.3c0,0.8-0.2,1.5-0.8,2.1c-1.5,1.6-2.5,2.8-3.1,3.6c-1.1,1.4-1.9,2.7-2.5,3.9
					c-0.1,0.2-0.7,1.4-2,3.7c-0.8,1.5-1.4,2.8-1.7,3.9c-0.2,0.6-0.6,1.5-1.2,2.6c-0.8,1.4-1.3,2.3-1.4,2.6L1,251.4
					c0,1.8-0.7,3.4-2.1,4.9c-1.8,2-2.9,3.3-3.2,4c-0.2,0.4-0.4,0.8-0.7,1.4c-0.1,0.8-0.6,1.3-1.4,1.4c-0.1,0-0.9,0.1-2.3,0.1
					c0.1-0.2,0.5-1,1.2-2.5c0.5-1.3,1.3-3.2,2.3-5.7c0.5-0.7,1.2-1.6,2-2.9c0.7-1.2,1-2.4,1-3.4c0-1.6-0.6-3.3-1.7-5.2l-0.1-0.4
					c0-0.5,0.1-1.2,0.3-1.9c0-0.8-0.3-1.7-0.7-2.8c-0.4-1.1-0.6-1.8-0.7-2.2c0.2-0.4,0.4-0.7,0.4-0.9c0-1-0.7-1.8-2-2.6
					c0-0.2-0.1-0.6-0.1-1.3c0-0.9-0.3-2.3-0.8-3.9c-0.5-1.7-0.8-2.9-0.9-3.7l-2.3-1.4c0-0.1-0.1-0.2-0.1-0.4c0-0.7,1.9-1,5.7-1h2.8
					c1.6,0,2.4,0.7,2.4,2.2c0,0.3-0.5,0.7-1.6,1.1c-1,0.5-1.6,1.2-1.6,2.3c0,0.1,0,0.7,0.1,1.7c0.5,0.6,0.9,1,1.1,1.4l0.1,1
					c0,0.2-0.1,0.5-0.2,1c-0.1,0.5-0.2,0.8-0.2,1c0,1.5,0.5,3.2,1.4,5.2c0,0.2-0.1,0.4-0.2,0.7c-0.1,0.3-0.2,0.5-0.2,0.7
					c0,0.5,0.2,1,0.6,1.6c0.4,0.6,0.6,1.1,0.6,1.6c0,0.4-0.1,0.7-0.4,1h0.2c0.5,0,1.9-2.4,4.3-7.3c0-0.6,0.1-1.1,0.3-1.4
					c0.6-0.9,1.3-2.2,2.3-4.1c0.4-1.1,0.8-2.3,1.2-3.4c0.5-1.4,1-2.4,1.7-3.1c0.4-0.5,0.6-0.8,0.6-1c0-0.2-0.1-0.4-0.2-0.8
					c-0.1-0.4-0.2-0.7-0.2-0.9l-0.1-0.4C11.7,220.5,14.3,220.2,17.7,220.2z"/>
				<path class="st7" d="M52,228.9c0,0.4-0.3,0.9-0.8,1.4c-0.5,0.6-0.8,1-0.8,1.3c0,0.1,0,0.2,0.1,0.4c0,0.2,0.1,0.3,0.1,0.4
					l0.5,0.2c0,0.3,0.1,0.5,0.1,0.6c0,0.2-0.1,0.7-0.4,1.2c-0.2,0.6-0.3,1-0.3,1.3c0.6,0.7,0.9,1.1,0.9,1.4c0,0.1-0.3,0.4-0.8,0.9
					c-0.7,0.6-1,0.9-1.1,1v1c0,1.6-0.3,2.9-1.1,3.9c-0.8,1-1.6,2-2.4,3.1c-0.2,0.3-0.5,0.7-0.9,1.2c-1.1,1-3.3,1.5-6.6,1.5
					c-1.4,0-2.7-1.4-3.7-4.1c-0.9-2.4-1.3-4.4-1.2-5.8c0.5-5.7,0.8-8.8,0.9-9.2c0.7-3.2,2.3-5.8,4.7-7.9c1.6-1.3,2.8-2,3.6-2h3.4
					c0.2,0,0.4-0.1,0.7-0.2c0.3-0.1,0.6-0.2,0.8-0.2c1.1,0,2.3,0.6,3.6,1.8c0.2,2.2,0.2,3.3,0.2,3.1l0.1,0.2c0,0.2-0.1,0.5-0.3,1
					l0.1,1.3c0.3,0.1,0.4,0.2,0.5,0.3c0,0.1,0.1,0.2,0.1,0.4C52,228.7,52,228.9,52,228.9z M46.8,227.4c-0.2-0.2-0.3-0.5-0.6-1
					c0.1-0.1,0.2-0.2,0.4-0.4c0-0.2,0-0.3,0-0.3c-0.1-0.5-0.2-1-0.4-1.5c-0.2-0.7-0.5-1-0.9-1c-1.2,0-1.8,0.1-1.8,0.4
					c0,0.2,0.1,0.4,0.4,0.7c-0.3-0.2-0.6-0.3-0.8-0.3c-0.5,0-1.2,0.9-2.3,2.6c-0.9,1.4-1.5,2.5-1.8,3.4c-0.1,0.3-0.8,1.4-2.2,3.4
					v0.1c0,0.3,0.1,0.8,0.3,1.5c0.2,0.7,0.3,1.1,0.3,1.5c0,0.2-0.1,0.7-0.2,1.2c-0.1,0.1-0.2,0.2-0.4,0.3c0.2,2,0.6,4.2,1.4,6.7
					c1,0.5,2.2,1.1,3.5,2c3.6-2.2,5.4-6.7,5.4-13.5C47.2,232.4,47.1,230.5,46.8,227.4z"/>
				<path class="st7" d="M96.1,219.4c-0.7,0.6-1.4,1.1-2,1.7c-1,0.8-1.5,1.4-1.5,1.7c-0.1,0.8-0.5,1.4-1.2,1.7c-2,1.1-3,2.7-3,4.6
					c0,0.8-0.1,1.4-0.2,1.9c-0.5,0.5-1,1.1-1.5,2.1c-1.2,4.5-3.1,8.9-5.8,13.1c0,0.5-0.2,1.1-0.5,2c-0.4,0.9-0.7,1.4-1.1,1.4
					c0,0-0.8-0.1-2.4-0.3C75.6,245.7,75,239,75,229c0-0.2-0.1-0.6-0.2-1h-0.6v0.1c0,0.1-1,1.9-2.9,5.4c-2.2,3.8-3.4,5.8-3.6,6.2
					c-0.8,0.6-1.7,1.8-2.9,3.6c-1.1,1.8-1.8,3.3-2.1,4.3c0,0.4-0.2,1-0.6,1.8c-0.9,1.1-2.4,1.7-4.4,1.7v-0.9v-0.8
					c0.2-0.2,0.3-0.5,0.3-0.7c-0.3-0.6-0.5-0.9-0.5-1c0-0.2,0.1-0.5,0.4-0.7c0.3-5.3,0.5-10.1,0.5-14.4c0-5.3-0.1-8.4-0.4-9.4
					l-0.4-0.5h-5.2v-0.4c-0.1-1.1,0.4-1.8,1.5-1.8c1,0,2.4-0.2,4.2-0.4c1.1-0.2,1.7-0.4,2-0.4c1.5,0,2.4,0.9,2.5,2.8
					c-0.2,0.3-0.4,0.5-0.4,0.7c0,0.2,0,0.5,0,0.6v0.2v0.2c-0.1,1.1-0.2,2.3-0.4,3.4c0.2,0.1,0.4,0.3,0.4,0.7
					c-0.1,0.2-0.3,0.4-0.6,0.4l0.6,6.5c-0.9,0.1-1.4,0.7-1.3,2v0.5c0.5,0.3,0.9,1,1,2l0.2,0.1c0.7-0.9,1.6-2.2,2.6-4
					c1.1-1.9,1.9-3.3,2.5-4c1.2-1.6,2.4-3.2,3.6-4.8c1.5-2.2,2.4-3.9,2.9-5.2c0.1-0.5,0.3-1.1,0.7-2c0.3-0.5,1.8-0.7,4.7-0.7
					c0,0.3,0.1,0.6,0.1,0.9c0,0.5-0.2,1.3-0.5,2.5c-0.3,1.2-0.4,1.9-0.4,2.2l0.4,4.5c0.4,0.7,0.6,1.8,0.7,3.1
					c-0.5,0.6-0.7,1.1-0.7,1.4c0,0.1-0.1,0.2-0.1,0.4c0,1.4,0.3,2.5,0.8,3.3c0,0-0.1,0.3-0.3,0.9v0.3c0,0.2,0.2,0.8,0.6,1.8
					c0.4-0.4,0.8-1,1-1.7c0.3-0.6,0.6-1.2,0.8-1.8c1.8-3.6,3.1-6.3,3.9-8.1c0.2-0.6,0.6-1.5,1.2-2.6c0.3-0.4,0.7-1,1.2-1.8
					c0.4-0.9,0.6-1.9,0.6-3c-0.2-0.2-0.4-0.5-0.6-0.7c0-0.4,0.6-0.6,1.7-0.8c0.7-0.1,1.5-0.2,2.2-0.2c0.9-0.3,1.8-0.5,2.6-0.5
					l1.1,0.1L96.1,219.4z"/>
				<path class="st7" d="M118.6,224.4c0,0.2-0.3,0.7-0.8,1.5c-1.3,2-1.9,4.5-1.9,7.4c0,1.2,0.1,2.6,0.4,4.2c-0.2,0.5-0.6,1-1.2,1.4
					v1.4c0,1.4,0,2.3-0.1,2.8c-0.2,1.3-0.3,1.8-0.3,1.6c0,0.7,0.2,1.8,0.7,3.2c1,0.1,1.5,0.6,1.5,1.7c0,1.7-1.9,2.6-5.7,2.6
					c-0.2-2.7-0.4-4.9-0.4-6.6c0-3.8,0.3-7.2,0.9-10c0.7-3.2,1-5.7,1-7.5c0-0.7-0.1-1.4-0.2-2.2c-1.6,1.2-2.7,2.6-3.4,4.1
					c-0.2,0.4-1,1.3-2.3,2.6c-1.6,1.5-2.9,3.4-3.9,5.7c-1.1,2.3-1.6,4.4-1.6,6.5c0,0.9,0.2,1.8,0.7,2.8c0.5,1,0.7,1.5,0.7,1.6
					c0,0.2,0,0.3-0.1,0.5c-0.5,0-1.4,0.2-2.8,0.5c-1.2,0.2-2.1,0.4-2.8,0.4V250c0-0.6,0.1-1.5,0.4-2.6c0.3-1.1,0.5-2,0.5-2.5
					c0,0,0-0.4,0-1.4c0.2-0.6,0.3-1.4,0.3-2.4c0-1,0.1-1.7,0.2-2.1c0.1-1,0.2-2.5,0.5-4.5c0.2-2,0.5-3.9,0.7-5.5
					c0.2-0.2,0.3-0.6,0.3-1.2c0-0.9-0.2-1.7-0.6-2.5l-0.4-0.4c0-0.4,0-0.7,0-1c0-0.5-0.1-0.8-0.3-1c-1.3-0.4-1.9-0.7-1.9-1
					c0-0.3,0.7-0.7,2.2-1.1c1.5-0.5,2.5-0.7,3-0.7c0.7,0,1.5,0.3,2.3,0.8c0.8,0.6,1.3,1.2,1.4,1.8c-0.7,2.2-1.1,4.3-1.1,6.3
					c0,0.5,0,1.1,0.1,1.6c0.6,0,1.1-0.3,1.5-0.9c2.3-2.9,5.1-5.6,8.4-8.3h0.9C117.5,221.4,118.6,222.4,118.6,224.4z"/>
			</g>
			<g>
				<path class="st7" d="M274.3,222.2c-0.3,0.5-0.7,1.3-1.2,2.3c-0.2,0.5-0.4,1.1-0.6,1.7c-0.3,0.7-0.7,1.1-1.1,1.1
					c-0.4-0.6-0.7-1.1-1.1-1.7c-0.6-0.8-1-1.2-1.4-1.2c-1.6,0-3,0.3-4.3,1c-1.2,2.3-1.8,3.6-1.8,3.8l0.5,5.5c-0.4,0.5-0.8,1.5-1.1,3
					c-0.3,1.5-0.5,2.6-0.5,3.5c0,0.3,0,0.7,0.1,1.3c0.1,0.6,0.1,1,0.1,1.2c-0.2,0.3-0.3,0.6-0.2,1v0.3c0.9,1,1.7,1.7,2.4,2.2
					l0.4-0.1l1.9-1.7h0.2c0.2,0,0.8,0.9,1.8,2.8v0.2c-1.7,1-2.8,1.5-3.3,1.5c-0.7,0-1.4-0.2-2.2-0.6c-2.1-1.1-3.4-1.9-3.9-2.5
					c-0.9-1-1.3-2.6-1.3-4.7c0-0.2,0-0.4,0.1-0.7c0.1-0.3,0.1-0.5,0.1-0.6c0.2-4.8,1.3-9.4,3.1-13.8c1-2.4,3.1-4.4,6.3-6.2h5.2
					C273.6,220.7,274.2,221.2,274.3,222.2z"/>
				<path class="st7" d="M296.4,224.4c-0.9,2-1.6,4.8-2.1,8.3c-0.8,5.6-1.1,8.5-1.1,8.5c-0.2,0.3-0.3,0.5-0.3,0.7c0,0.1,0,0.4,0,0.9
					c0,0.3,0,0.6,0,0.9l0.1,0.4c-0.6,1.3-0.9,1.9-1,2c0,0.1,0,0.7,0,1.8c0,0.9-0.6,1.8-1.9,2.6c-0.2,0-0.5,0.2-0.9,0.4
					c-0.7,1-1.1,2.2-1.3,3.4c-0.1,1.1-0.3,1.8-0.5,2c-0.5,0.5-1.6,0.7-3.4,0.7c0-0.3,0.2-0.6,0.5-1c1-1.4,2.2-3.9,3.6-7.6
					c1-2.8,1.7-7.4,2.2-13.7c0.3-4,0.4-6.2,0.4-6.8c0-1.2-0.3-1.9-1-2.1c-1.4,0.9-2.8,2.4-4.3,4.5l-0.4,0.3
					c-0.2,0.2-0.7,0.9-1.5,2.1c-2.9,3.9-4.4,8.3-4.4,13.3c0,0.4,0.1,0.8,0.3,1.4c0.2,0.5,0.3,0.9,0.3,1.2c0,0.7-0.3,1-1,1
					c-2.3,0-3.4-0.8-3.4-2.4c0-0.2,0-0.4,0.1-0.8c0.1-0.4,0.1-0.7,0.1-0.9c0-1.8,0-2.8,0-3c0-2,0.1-4.6,0.4-7.7
					c0.2-2,0.3-2.9,0.3-2.6c0-1,0-1.3,0-1l0.7-9.3c0.2-0.5,0.4-1.3,0.4-2.5c0-1.6,0-2.5,0.1-2.7c0.3-2.5,0.5-3.9,0.5-4.1
					c0-0.3,0-0.7-0.1-1.2c-0.1-0.5-0.1-0.9-0.1-1.2c0-1.7,0.3-3.4,0.8-5.2c0.2-0.7,0.8-1,1.9-1c0.6,0,1.2,0.1,1.9,0.4
					c0.2,1.1,0.3,2.3,0.3,3.6c0,0.7-0.3,1.7-1,2.9c-0.7,1.2-1,2.3-1,3.1c0,1.1,0.2,1.9,0.6,2.4c0.3,2.4,0.5,4.1,0.5,5
					c0,1.2-0.1,2.1-0.2,2.5c-0.7,0.8-1.1,1.4-1.1,1.7c0,0.1,0.1,0.5,0.2,1.2c0,0.2-0.1,0.5-0.1,0.9c-0.3,0.4-0.6,0.7-0.7,1
					c0,0.6,0.2,1.1,0.6,1.5c-0.2,0.6-0.3,1.1-0.3,1.4c0,0.3,0.1,0.5,0.4,0.5c1.1-0.7,2.2-2.1,3.4-4.2c1.4-2.2,2.5-3.7,3.3-4.4
					c1.6-1.4,3.5-2.1,5.9-2.1c1,0,1.9,0.3,2.5,0.8C296.1,222.7,296.4,223.4,296.4,224.4z"/>
				<path class="st7" d="M321,250c0,1.2-1.2,1.8-3.6,1.8c-1,0-1.9-0.3-2.8-0.9c-0.6-0.9-0.9-1.9-1-2.8c0-0.2,0-1.2,0-2.9
					c0-1.5-0.2-3.1-0.6-4.8l-0.4,0.1c-0.2,0.4-1.1,1.3-2.5,2.6c-1.1,1.1-1.7,2-2,2.9c-1,0.7-2,1.5-3,2.2c-1.6,1.1-2.6,1.7-3,1.7
					c-0.7,0-1.5-0.2-2.4-0.6c-0.7-0.9-1.1-2.7-1.1-5.4c0-1.8,0.4-3.9,1.2-6.3c0.7-2,1.4-4,2.1-6.1l0.1-0.1c0.7-0.8,1.3-1.7,2-2.6
					c0.3-0.9,1.5-2.5,3.8-4.8c0.8-0.3,2.5-1.2,4.9-2.9c0.3,0.1,0.6,0.2,1,0.2c0.7,0,1.9-0.3,3.7-1c0.4,0,0.6,0.3,0.6,0.8
					c0,0.6-0.1,1.5-0.3,2.7c-0.2,1.2-0.3,2.1-0.3,2.7c0,0.7,0.2,1.2,0.7,1.7c-0.5,2.8-0.7,5.6-0.7,8.5c0,0.9,0.1,2.6,0.4,5.3
					c0.1,2.2,0.2,4,0.1,5.3c0.1,0.4,0.6,0.8,1.7,1.3C320.4,249,321,249.5,321,250z M313.4,225.5l-2.5,0.5v0.7c0,0.4-0.1,0.6-0.3,0.7
					c0.2,0,0-0.1-0.7-0.1c-0.1,0-0.3,0.1-0.5,0.2c0,0.3-0.5,1-1.6,1.9c-1.4,1.2-2.4,2.3-3.1,3.3c-1.1,1.6-1.6,3.4-1.6,5.3
					c0,0.2-0.1,0.5-0.2,1c-0.1,0.5-0.2,0.8-0.2,1.1c-0.2,0.4-0.5,1-1,1.9c0,0,0.1,0.1,0.1,0.2c0,0.1-0.1,0.4-0.2,0.7l0.4,0.1
					c0.1,0.3,0.2,0.5,0.2,0.6c0,0.4-0.3,0.9-0.9,1.6l-0.1,0.5c0,0.8,0.1,1.5,0.2,2.2c1.2-0.3,2.8-1.8,4.9-4.4
					c1.8-2.3,3.1-4.2,3.8-5.7c0.1-0.2,0.6-0.8,1.3-1.7c0.5-0.6,0.7-1.4,0.7-2.3c0-0.1,0-0.3,0-0.7c0-0.3,0-0.6,0-0.7
					c0-0.7,0.2-1.7,0.7-3c0.5-1.3,0.7-2.3,0.7-3C313.6,226.2,313.5,225.9,313.4,225.5z"/>
				<path class="st7" d="M344.8,224.4c0,0.2-0.3,0.7-0.8,1.5c-1.3,2-1.9,4.5-1.9,7.4c0,1.2,0.1,2.6,0.4,4.2c-0.2,0.5-0.6,1-1.2,1.4
					v1.4c0,1.4,0,2.3-0.1,2.8c-0.2,1.3-0.3,1.8-0.3,1.6c0,0.7,0.2,1.8,0.7,3.2c1,0.1,1.5,0.6,1.5,1.7c0,1.7-1.9,2.6-5.7,2.6
					c-0.2-2.7-0.4-4.9-0.4-6.6c0-3.8,0.3-7.2,0.9-10c0.7-3.2,1-5.7,1-7.5c0-0.7-0.1-1.4-0.2-2.2c-1.6,1.2-2.7,2.6-3.4,4.1
					c-0.2,0.4-1,1.3-2.3,2.6c-1.6,1.5-2.9,3.4-3.9,5.7c-1.1,2.3-1.6,4.4-1.6,6.5c0,0.9,0.2,1.8,0.7,2.8c0.5,1,0.7,1.5,0.7,1.6
					c0,0.2,0,0.3-0.1,0.5c-0.5,0-1.4,0.2-2.8,0.5c-1.2,0.2-2.1,0.4-2.8,0.4V250c0-0.6,0.1-1.5,0.4-2.6c0.3-1.1,0.5-2,0.5-2.5
					c0,0,0-0.4,0-1.4c0.2-0.6,0.3-1.4,0.3-2.4c0-1,0.1-1.7,0.2-2.1c0.1-1,0.2-2.5,0.5-4.5c0.2-2,0.5-3.9,0.7-5.5
					c0.2-0.2,0.3-0.6,0.3-1.2c0-0.9-0.2-1.7-0.6-2.5l-0.4-0.4c0-0.4,0-0.7,0-1c0-0.5-0.1-0.8-0.3-1c-1.3-0.4-1.9-0.7-1.9-1
					c0-0.3,0.7-0.7,2.2-1.1c1.5-0.5,2.5-0.7,3-0.7c0.7,0,1.5,0.3,2.3,0.8c0.8,0.6,1.3,1.2,1.4,1.8c-0.7,2.2-1.1,4.3-1.1,6.3
					c0,0.5,0,1.1,0.1,1.6c0.6,0,1.1-0.3,1.5-0.9c2.3-2.9,5.1-5.6,8.4-8.3h0.9C343.7,221.4,344.8,222.4,344.8,224.4z"/>
				<path class="st7" d="M368.6,224.4c0,0.2-0.3,0.7-0.8,1.5c-1.3,2-1.9,4.5-1.9,7.4c0,1.2,0.1,2.6,0.4,4.2c-0.2,0.5-0.6,1-1.2,1.4
					v1.4c0,1.4,0,2.3-0.1,2.8c-0.2,1.3-0.3,1.8-0.3,1.6c0,0.7,0.2,1.8,0.7,3.2c1,0.1,1.5,0.6,1.5,1.7c0,1.7-1.9,2.6-5.7,2.6
					c-0.2-2.7-0.4-4.9-0.4-6.6c0-3.8,0.3-7.2,0.9-10c0.7-3.2,1-5.7,1-7.5c0-0.7-0.1-1.4-0.2-2.2c-1.6,1.2-2.7,2.6-3.4,4.1
					c-0.2,0.4-1,1.3-2.3,2.6c-1.6,1.5-2.9,3.4-3.9,5.7c-1.1,2.3-1.6,4.4-1.6,6.5c0,0.9,0.2,1.8,0.7,2.8c0.5,1,0.7,1.5,0.7,1.6
					c0,0.2,0,0.3-0.1,0.5c-0.5,0-1.4,0.2-2.8,0.5c-1.2,0.2-2.1,0.4-2.8,0.4V250c0-0.6,0.1-1.5,0.4-2.6c0.3-1.1,0.5-2,0.5-2.5
					c0,0,0-0.4,0-1.4c0.2-0.6,0.3-1.4,0.3-2.4c0-1,0.1-1.7,0.2-2.1c0.1-1,0.2-2.5,0.5-4.5c0.2-2,0.5-3.9,0.7-5.5
					c0.2-0.2,0.3-0.6,0.3-1.2c0-0.9-0.2-1.7-0.6-2.5l-0.4-0.4c0-0.4,0-0.7,0-1c0-0.5-0.1-0.8-0.3-1c-1.3-0.4-1.9-0.7-1.9-1
					c0-0.3,0.7-0.7,2.2-1.1c1.5-0.5,2.5-0.7,3-0.7c0.7,0,1.5,0.3,2.3,0.8c0.8,0.6,1.3,1.2,1.4,1.8c-0.7,2.2-1.1,4.3-1.1,6.3
					c0,0.5,0,1.1,0.1,1.6c0.6,0,1.1-0.3,1.5-0.9c2.3-2.9,5.1-5.6,8.4-8.3h0.9C367.5,221.4,368.6,222.4,368.6,224.4z"/>
				<path class="st7" d="M387,225.4c0,0.2,0,0.3-0.1,0.4c-0.3,0.2-0.7,0.6-1.2,1.2l0.1,0.7c0.4,0.4,0.6,0.9,0.6,1.5
					c-0.4,0.8-0.7,1.7-1.1,2.5c-0.6,1.2-1.1,1.8-1.5,1.9c-0.3,0-0.7,0.1-1.2,0.4c-0.2,1.2-0.5,2-0.7,2.2c-1.4,1.5-2.9,2.2-4.3,2.2
					c-0.4,0-1.2-0.5-2.5-1.5h-0.4c-0.4,0.7-0.6,1.7-0.6,2.9c0,1.5,0.3,3.4,0.9,5.6c0.2,0.8,1.4,1.2,3.6,1.2c0.5,0,1.1-0.2,1.9-0.5
					s1.5-0.5,1.9-0.5v0.6c0.1,2.7-1.6,4-5.2,4c-1,0-2-0.4-3-1.2c-1.6-1.3-2.5-1.9-2.7-2l-0.2-0.9l0.3-0.3v-0.7
					c0,0.3-0.1-0.2-0.4-1.5c-0.2-1-0.3-2.1-0.3-3.3c0-5.4,1.5-10.2,4.6-14.4c2.5-3.4,4.6-5.3,6.5-5.7l0.7,0.5
					c0.5-0.3,0.8-0.5,0.9-0.5c0.7,0,1.4,0.7,2.2,2.1C386.5,223.6,387,224.7,387,225.4z M383,225l-1.7,0.4c-0.3,0.4-0.7,1-1.3,1.8
					c-0.4,0.2-0.9,0.5-1.5,1.1c-0.3,0.3-0.5,0.7-0.6,1.3c-0.1,0.5-0.2,0.9-0.3,1.1c-0.5,0.7-1.1,1.4-1.6,2.2
					c-0.5,0.9-0.8,1.7-0.7,2.5v0.2c1.9,0,3.7-1,5.4-3.1c1.7-2,2.6-4,2.6-6C383.3,225.8,383.2,225.3,383,225z"/>
				<path class="st7" d="M398.6,203v0.2c0,0.2,0,0.5-0.1,0.7c-0.3,0.3-0.6,0.7-0.9,1c0,0.2,0.1,0.5,0.1,0.6l-0.1,0.2l0.1,0.2
					c0,0.4-0.3,0.8-0.9,1c0,0.1,0,0.4,0.1,0.7c0.1,0.3,0.1,0.6,0.1,0.8c0,0.2-0.1,0.6-0.2,1c-0.1,0.4-0.2,0.7-0.2,1
					c0,0.3,0,0.7,0.1,1.2c0.1,0.5,0.1,0.9,0.1,1.2c0,0.3-0.1,0.7-0.4,1.3l0.2,1.4c-0.2,0.5-0.3,0.8-0.3,1c0,0.2,0,0.5,0.1,1
					c0,0.4,0.1,0.8,0.1,1c0,0.6-0.1,1.8-0.4,3.4c-0.2,1.8-0.4,3.1-0.4,3.9c-0.2,0.4-0.5,1-0.6,1.9c-0.2,0.9-0.3,1.5-0.5,1.8
					c0,1.9-0.1,3.5-0.4,4.7c0,0.2-0.2,0.7-0.5,1.6c-0.2,0.7-0.4,1.3-0.4,1.5c0,0.2,0,0.3,0.1,0.5c0.2,0.1,0.6,0.3,0.9,0.7
					c0,0.1,0,0.2,0.1,0.4l-0.1,0.3c-0.8,1.3-1.1,2.3-1.1,3v0.4c0.2,0.1,0.4,0.2,0.5,0.4c0,0.4,0.1,0.6,0.1,0.7
					c0,0.7-0.6,1.1-1.7,1.4c0.8,0.7,1.2,1.4,1.2,2.2c0,1.1-0.9,1.6-2.6,1.6c-1.2,0-1.7-0.3-1.7-1c0-0.5,0-0.6,0.1-0.4
					c0.7-1.8,1.1-4,1.2-6.6c0.1-2.3,0.2-4.6,0.3-6.8c0.2-0.8,0.4-1.9,0.7-3.4c0.2-2.1,0.5-5.3,0.8-9.6c0.2-3,0.5-7.5,1.1-13.5
					c0.3-2.1,0.9-3.3,1.8-3.7c0.4-0.2,1-0.6,1.6-1H398.6z"/>
			</g>
			<g>
				<path class="st6" d="M193.4,215.3c0,0.5-0.3,0.9-0.8,1.2c-2.6,1.4-3.8,2.1-3.6,2.1c-0.5,0-1.1-0.3-1.7-0.9c-0.6-0.6-1-0.9-1.1-1
					c-1.3-0.4-2.2-0.6-2.7-0.6c-1.6,0-3,0-4.1,0.1c-0.1,0.1-0.3,1.3-0.5,3.4c-0.2,0.3-0.5,1.3-0.8,3c-0.3,1.7-0.4,2.8-0.4,3.4
					c0,0.4,0,1,0.1,1.8c0.1,0.8,0.1,1.3,0.2,1.7c-0.5,0.3-0.8,0.8-0.8,1.5c0,0.2,0.1,0.8,0.2,1.5c0.4,0.4,0.6,0.9,0.6,1.4
					s-0.6,1.7-1.9,3.5c0.1,0.4,0.3,1,0.6,1.9c-0.5,1.8-0.7,2.8-0.7,2.9c0,0.4,0.1,1,0.2,1.9c0.1,0.9,0.2,1.5,0.2,1.9
					c0,0.2-0.1,0.6-0.2,1.2c-0.1,0.6-0.3,0.9-0.4,0.9c-0.3,0.6-0.9,1.2-1.7,1.9c-0.9,0.7-1.6,1.1-2.2,1.1c0,0-0.3-0.8-0.8-2.4
					c-0.4-1.1-0.6-1.6-0.6-1.4l0.2-2.9l-0.2-0.1c0.2,0.5,0.4,0.7,0.6,0.7c0.4,0,0.8-1.2,1.1-3.6c0.3-2.7,0.6-4.3,0.8-4.7
					c0.5-5,0.8-8.7,0.8-11.1l-0.2-2.4c0.6-0.9,0.9-2.4,0.9-4.4c0-1.4-0.1-2.2-0.4-2.6c-0.4-0.6-1.2-0.9-2.4-0.9
					c-0.2,0-0.3,0-0.4,0.1c-0.4,0.4-0.9,0.6-1.4,0.6c-0.1,0-0.3-0.1-0.7-0.3c-0.4-0.2-0.7-0.3-0.8-0.4l-1.1,0.1l-1.3-0.1
					c-0.2,0.1-0.5,0.3-0.7,0.6c-0.1,0.1-0.5,0.2-1.2,0.2s-1.5,0.1-2.2,0.3c-0.8,0.3-1.4,0.5-1.8,0.5c0-0.4-0.1-0.7-0.1-1
					c0-1.2,0.4-2.2,1.2-2.9c0.8-0.7,1.8-1.1,3.1-1.1c0.2,0,0.6,0.1,1.2,0.2c1.1,0.7,2.9,1.1,5.4,1.2c2,0,3.9,0,5.8,0l11,0.2
					c0.3-0.2,0.9-0.4,1.7-0.4C192,213,193.4,213.8,193.4,215.3z"/>
				<path class="st6" d="M228.2,213c-0.7,1.2-1.8,2.9-3.4,5.2c-1,1.2-2.1,3-3.3,5.4c-1.1,2.2-2.9,4.8-5.5,8
					c-0.7,0.8-1.4,2.2-2.1,4.2c-0.7,2-1.3,3.3-1.9,4.1c-0.5,0.5-1.5,1.4-3.2,2.7c0,0.7-0.1,1.2-0.4,1.4c-0.5,0.3-1.1,0.9-2,1.7
					c-1.5,2-2.2,3.8-2.1,5.5c-0.2,0.2-0.5,0.4-0.9,0.4c-1.9,0-3-0.5-3.5-1.4v-0.3c0-0.2,0-0.6-0.1-1.4c0-0.2-0.3-0.6-0.7-1
					c0.5-1.4,0.7-3.2,0.7-5.2c0-0.5-0.1-1.2-0.2-2.2c-0.1-1-0.2-1.8-0.2-2.2c0-0.4,0.1-0.7,0.3-1l-1.4-15.5
					c-0.1-0.7-0.3-1.6-0.6-2.8c-0.8-0.2-1.5-0.4-2.2-0.7c-0.2-0.2-1.5-0.5-3.9-1c0.8-0.7,3.7-1,8.6-1c1.5,0,2.5,0.1,2.8,0.4
					c0.2,1.9,0.4,3.6,0.4,4.9c0,2.6-0.2,4.3-0.7,5.1l1.1,12.4l-0.8,0.4c0.2,1.1,0.2,1.7,0.2,1.6c0,0.5-0.2,0.8-0.5,0.8l0.3,4.5h0.5
					c0.6-1.1,1.6-2.9,2.9-5.2c0.3-0.3,0.7-0.8,1.2-1.4c0.3-0.5,0.6-1.1,0.8-2c0.2-0.9,0.5-1.5,0.7-1.8l5.9-10.3
					c0.7-0.4,1.6-1.6,2.6-3.6s1.5-3.5,1.5-4.5c0-0.3-0.1-0.9-0.2-1.6c-0.3-0.1-0.5-0.4-0.6-1c1.7-0.2,2.8-0.4,3.4-0.7
					c0.2-0.1,0.5-0.2,0.9-0.4c0.7,0,1.6,0,2.9,0l0.9-0.7h1.2L228.2,213z"/>
			</g>
		</g>
		<rect x="-50.2" y="280.7" class="st4" width="444.5" height="3.6"/>
	</g>
	<g>
		<g>
			<g>
				<path class="st6" d="M138.1,452.4c0-22.7,0-45,0-67.5c36.2,0,72.1,0,108.3,0c0,22.6,0,45,0,67.5
					C210.1,452.4,174.1,452.4,138.1,452.4z M240.5,447c0-19.1,0-37.8,0-56.2c-32.5,0-64.6,0-96.6,0c0,18.9,0,37.5,0,56.2
					C176.2,447,208.1,447,240.5,447z"/>
				<polygon class="st6" points="218.1,461.1 164.1,461.1 157.8,458.5 164.1,455.9 218.1,455.9 224.4,458.3 				"/>
			</g>
			<text transform="matrix(1 0 0 1 -52.2067 436.7532)" class="st7" style="font-family:'BrubeckAH'; font-size:61.444px;">my own</text>
			<text transform="matrix(1 0 0 1 255.8939 436.7532)" class="st7" style="font-family:'BrubeckAH'; font-size:61.444px;">channel</text>
			<text transform="matrix(1 0 0 1 158.1497 438.2156)" class="st6" style="font-family:'BrubeckAH'; font-size:61.444px;">TV</text>
		</g>
		<rect x="-50.2" y="468" class="st4" width="444.5" height="3.6"/>
	</g>
</g>
</svg>
