<?xml version="1.0" encoding="utf-8"?>
<!-- Generator: Adobe Illustrator 19.1.0, SVG Export Plug-In . SVG Version: 6.00 Build 0)  -->
<svg version="1.1" id="Layer_1" xmlns="http://www.w3.org/2000/svg" xmlns:xlink="http://www.w3.org/1999/xlink" x="0px" y="0px"
	 viewBox="192 123.9 883.6 254.1" style="enable-background:new 192 123.9 883.6 254.1;" xml:space="preserve">
<style type="text/css">
	.st0{fill:#2DB9E7;}
	.st1{fill:#FFFFFF;stroke:#FFFFFF;stroke-width:1.1687;stroke-miterlimit:10;}
	.st2{fill:none;stroke:#2DB9E7;stroke-width:19.0114;stroke-miterlimit:10;}
</style>
<ellipse class="st0" cx="338" cy="246.9" rx="86.5" ry="83.1"/>
<g>
	<path class="st1" d="M303.6,297.8c-2.8-0.1-5.4,1.8-5.6,4.1c0.5,3.1,1.9,4.2,4.8,4.2c40,0.8,75.1-24.9,78.3-57.1
		c0.1-1.1-0.4-2.2-1.2-3c-0.8-0.8-2.1-1.2-3.6-1.3c-2.8-0.1-5.4,1.8-5.6,4.1C368.1,276.4,338,298.4,303.6,297.8z"/>
	<path class="st1" d="M307.7,279.7c-2.8,0-5.4,1.9-5.6,4.2c-0.2,2.3,2,4.2,4.8,4.2c28.6,0,53.3-18.8,55.2-41.8
		c0.1-1.1-0.4-2.2-1.3-2.9c-0.8-0.8-2.2-1.2-3.6-1.2c-2.8,0-5.4,1.9-5.6,4.2C350.3,264.7,330.5,279.7,307.7,279.7z"/>
	<path class="st1" d="M295.3,248.8c-0.1,2.2,2,3.6,4.6,3.2c2.6-0.4,4.9-2.4,5-4.5c1.3-25.6,28.2-49.7,59.9-53.9
		c2.6-0.4,4.9-2.4,5-4.5c0.1-1-0.5-2-1.2-2.5c-0.8-0.6-2-0.8-3.3-0.7C328.2,190.8,296.9,219,295.3,248.8z"/>
	<path class="st1" d="M316.6,251.2c0,2.3,2.4,4.1,5.3,4c2.8-0.1,5.2-2,5.2-4.3c-0.3-18.3,18.2-33.9,41.1-34.5c2.9-0.1,5.2-2,5.2-4.3
		c0-1.1-0.7-2.2-1.6-2.9c-0.9-0.8-2.3-1.1-3.7-1.1C339.3,208.9,316.2,228.2,316.6,251.2z"/>
</g>
<path class="st0" d="M477,276.6c0.6,4.4,1.7,7.6,3.5,9.5c3.1,3.4,9,5,17.4,5c5,0,9-0.8,11.9-2.2c2.9-1.5,4.4-3.7,4.4-6.6
	c0-2.8-1.2-5-3.5-6.4c-2.4-1.5-11.1-4-26.3-7.5c-10.9-2.7-18.7-6.1-23.1-10.2c-4.4-4-6.7-9.8-6.7-17.3c0-8.9,3.5-16.5,10.5-22.9
	s16.8-9.6,29.5-9.6c12.1,0,21.9,2.4,29.4,7.2s11.9,13.1,13,24.8h-25.2c-0.4-3.2-1.2-5.8-2.7-7.6c-2.7-3.4-7.5-5.1-14.1-5.1
	c-5.5,0-9.4,0.8-11.7,2.5c-2.4,1.7-3.5,3.7-3.5,6c0,2.9,1.2,5,3.7,6.2c2.5,1.3,11.2,3.7,26.3,7c10,2.4,17.5,5.9,22.5,10.7
	c4.9,4.8,7.5,10.8,7.5,18.1c0,9.5-3.6,17.4-10.7,23.4s-18.1,9.1-32.9,9.1c-15.2,0-26.3-3.2-33.6-9.6c-7.3-6.4-10.8-14.5-10.8-24.4
	L477,276.6L477,276.6z"/>
<path class="st0" d="M540.5,232.5v-17.9h13.4v-26.8h24.9v26.9h15.7v17.9h-15.7v50.8c0,4,0.5,6.4,1.5,7.4c1,0.9,4.1,1.4,9.1,1.4
	c0.8,0,1.6,0,2.5,0c0.8,0,1.7-0.1,2.5-0.1v18.8l-11.9,0.5c-11.9,0.4-20-1.6-24.3-6.2c-2.8-2.9-4.2-7.4-4.2-13.3v-59.2L540.5,232.5
	L540.5,232.5z"/>
<path class="st0" d="M656.4,211.5c0.3,0,1,0.1,2.2,0.1v25.8c-1.6-0.2-3-0.3-4.2-0.4c-1.2-0.1-2.3-0.1-3-0.1
	c-10.1,0-16.9,3.3-20.4,9.9c-2,3.7-2.9,9.4-2.9,17.2v46h-25.4v-96.2h24.1v16.8c3.9-6.4,7.3-10.8,10.2-13.1c4.7-4,10.8-5.9,18.4-5.9
	C655.7,211.4,656,211.5,656.4,211.5z"/>
<path class="st0" d="M663.1,213.7h25.6v96.2h-25.6V213.7z"/>
<path class="st0" d="M820.3,214c4.2,1.6,7.8,4.5,11.2,8.7c2.7,3.4,4.5,7.5,5.5,12.4c0.6,3.2,0.8,8,0.8,14.2l-0.2,60.7h-25.8v-61.3
	c0-3.7-0.6-6.6-1.8-9c-2.3-4.4-6.3-6.7-12.4-6.7c-7,0-11.7,2.9-14.4,8.7c-1.3,3-2.1,6.7-2.1,11v57.3h-25.4v-57.3
	c0-5.8-0.6-9.8-1.8-12.5c-2.1-4.6-6.2-7-12.5-7c-7.2,0-12,2.4-14.4,7c-1.3,2.6-2.1,6.6-2.1,11.8v57.9h-25.5v-96H724V228
	c3.1-5,6-8.6,8.9-10.7c4.9-3.8,11.2-5.7,19-5.7c7.4,0,13.3,1.6,17.8,4.8c3.7,3,6.4,6.9,8.3,11.6c3.3-5.7,7.4-9.8,12.3-12.5
	c5.2-2.6,10.9-4,17.3-4C812,211.5,816.1,212.4,820.3,214z"/>
<path class="st0" d="M965.4,214c4.2,1.6,7.8,4.5,11.2,8.7c2.7,3.4,4.5,7.5,5.5,12.4c0.6,3.2,0.8,8,0.8,14.2l-0.2,60.7H957v-61.3
	c0-3.7-0.6-6.6-1.8-9c-2.3-4.4-6.3-6.7-12.4-6.7c-7,0-11.7,2.9-14.4,8.7c-1.3,3-2.1,6.7-2.1,11v57.3H901v-57.3
	c0-5.8-0.6-9.8-1.8-12.5c-2.1-4.6-6.2-7-12.5-7c-7.2,0-12,2.4-14.4,7c-1.3,2.6-2.1,6.6-2.1,11.8v57.9h-25.5v-96h24.4V228
	c3.1-5,6-8.6,8.9-10.7c4.9-3.8,11.2-5.7,19-5.7c7.4,0,13.3,1.6,17.8,4.8c3.7,3,6.4,6.9,8.3,11.6c3.3-5.7,7.4-9.8,12.3-12.5
	c5.2-2.6,10.9-4,17.3-4C957.1,211.5,961.3,212.4,965.4,214z"/>
<path class="st2" d="M637.7,197.2c0,0,12.4-14,37.1-14c22.1,0,33.6,14.3,33.6,14.3"/>
<g>
	<g>
		<path class="st0" d="M987.2,218.7c0.7-1.6,1.6-2.9,2.8-4.1c1.2-1.1,2.5-2.1,4.2-2.7c1.6-0.7,3.2-0.9,5-0.9c1.8,0,3.4,0.3,5,0.9
			c1.6,0.7,2.9,1.6,4.1,2.7c1.1,1.1,2.1,2.5,2.8,4.1c0.7,1.6,1,3.2,1,5.1s-0.4,3.6-1,5.2s-1.6,2.9-2.8,4.1c-1.1,1.1-2.5,2.1-4.1,2.7
			c-1.6,0.7-3.2,0.9-5,0.9c-1.8,0-3.4-0.3-5-0.9c-1.6-0.7-2.9-1.5-4.2-2.7c-1.2-1.1-2.1-2.5-2.8-4.1c-0.7-1.6-1-3.3-1-5.2
			S986.5,220.2,987.2,218.7z M989.3,228.2c0.6,1.3,1.3,2.5,2.3,3.5c0.9,0.9,2.1,1.8,3.4,2.4c1.3,0.6,2.7,0.8,4.2,0.8
			c1.5,0,2.9-0.3,4.2-0.8c1.3-0.6,2.5-1.3,3.4-2.4c0.9-0.9,1.7-2.2,2.3-3.5s0.8-2.8,0.8-4.4c0-1.5-0.3-3-0.8-4.3s-1.3-2.5-2.3-3.5
			c-0.9-0.9-2.1-1.8-3.4-2.3c-1.3-0.6-2.6-0.8-4.2-0.8c-1.5,0-2.9,0.3-4.2,0.8s-2.5,1.3-3.4,2.3c-0.9,0.9-1.7,2.2-2.3,3.5
			c-0.6,1.3-0.8,2.7-0.8,4.3C988.5,225.3,988.7,226.8,989.3,228.2z M999.9,216.3c1.8,0,3.1,0.4,4,1c0.8,0.8,1.3,1.8,1.3,3.2
			c0,1.3-0.4,2.4-1.1,3c-0.8,0.7-1.7,1-2.8,1.1l4.3,6.7h-2.5l-4.1-6.5h-2.5v6.5h-2.4v-15.1H999.9z M998.9,223c0.6,0,1,0,1.5-0.1
			c0.5,0,0.8-0.1,1.2-0.3s0.7-0.4,0.8-0.8c0.2-0.4,0.3-0.8,0.3-1.4c0-0.5-0.1-0.9-0.3-1.2c-0.2-0.3-0.5-0.6-0.8-0.7
			c-0.3-0.2-0.7-0.3-1-0.3c-0.4-0.1-0.8-0.1-1.2-0.1h-3.1v4.8C996.4,223,998.9,223,998.9,223z"/>
	</g>
</g>
<g>
	<path class="st0" d="M675.8,363.2v-29.4h-10.5v-6h28.1v6H683v29.4H675.8z"/>
	<path class="st0" d="M709.2,355l6.8,1.1c-0.9,2.5-2.2,4.4-4.1,5.7c-1.9,1.3-4.2,1.9-7,1.9c-4.5,0-7.8-1.5-9.9-4.4
		c-1.7-2.3-2.5-5.3-2.5-8.8c0-4.2,1.1-7.6,3.3-10c2.2-2.4,5-3.6,8.4-3.6c3.8,0,6.8,1.3,9,3.8c2.2,2.5,3.3,6.4,3.2,11.6h-17
		c0,2,0.6,3.6,1.6,4.7c1,1.1,2.3,1.7,3.9,1.7c1.1,0,2-0.3,2.7-0.9S708.8,356.3,709.2,355z M709.6,348.2c0-2-0.6-3.5-1.5-4.5
		c-1-1-2.1-1.5-3.5-1.5c-1.5,0-2.7,0.5-3.7,1.6c-1,1.1-1.4,2.5-1.4,4.4H709.6z"/>
	<path class="st0" d="M721.8,363.2v-35.4h6.8v35.4H721.8z"/>
	<path class="st0" d="M750.4,355l6.8,1.1c-0.9,2.5-2.2,4.4-4.1,5.7c-1.9,1.3-4.2,1.9-7,1.9c-4.5,0-7.8-1.5-9.9-4.4
		c-1.7-2.3-2.5-5.3-2.5-8.8c0-4.2,1.1-7.6,3.3-10c2.2-2.4,5-3.6,8.4-3.6c3.8,0,6.8,1.3,9,3.8c2.2,2.5,3.3,6.4,3.2,11.6h-17
		c0,2,0.6,3.6,1.6,4.7c1,1.1,2.3,1.7,3.9,1.7c1.1,0,2-0.3,2.7-0.9C749.5,357.3,750.1,356.3,750.4,355z M750.8,348.2
		c0-2-0.6-3.5-1.5-4.5c-1-1-2.1-1.5-3.5-1.5c-1.5,0-2.7,0.5-3.7,1.6c-1,1.1-1.4,2.5-1.4,4.4H750.8z"/>
	<path class="st0" d="M770.1,363.2l-10.3-25.6h7.1l4.8,13.1l1.4,4.4c0.4-1.1,0.6-1.8,0.7-2.2c0.2-0.7,0.5-1.4,0.7-2.2l4.9-13.1h7
		l-10.2,25.6H770.1z"/>
	<path class="st0" d="M790.6,334.1v-6.3h6.8v6.3H790.6z M790.6,363.2v-25.6h6.8v25.6H790.6z"/>
	<path class="st0" d="M801.9,355.9l6.8-1c0.3,1.3,0.9,2.3,1.8,3c0.9,0.7,2.1,1,3.7,1c1.8,0,3.1-0.3,4-1c0.6-0.5,0.9-1.1,0.9-1.8
		c0-0.5-0.2-0.9-0.5-1.3c-0.3-0.3-1.1-0.6-2.3-0.9c-5.5-1.2-8.9-2.3-10.4-3.3c-2-1.4-3-3.3-3-5.8c0-2.2,0.9-4.1,2.6-5.6
		c1.8-1.5,4.5-2.3,8.2-2.3c3.5,0,6.1,0.6,7.8,1.7c1.7,1.1,2.9,2.8,3.5,5.1l-6.4,1.2c-0.3-1-0.8-1.8-1.6-2.3
		c-0.8-0.5-1.9-0.8-3.3-0.8c-1.8,0-3.1,0.2-3.8,0.7c-0.5,0.4-0.8,0.8-0.8,1.4c0,0.5,0.2,0.9,0.7,1.2c0.6,0.5,2.7,1.1,6.3,1.9
		s6.1,1.8,7.6,3c1.4,1.2,2.1,2.9,2.1,5c0,2.3-1,4.4-2.9,6.1c-2,1.7-4.9,2.5-8.7,2.5c-3.5,0-6.3-0.7-8.3-2.1S802.5,358.3,801.9,355.9
		z"/>
	<path class="st0" d="M831.8,334.1v-6.3h6.8v6.3H831.8z M831.8,363.2v-25.6h6.8v25.6H831.8z"/>
	<path class="st0" d="M844,350c0-2.3,0.6-4.4,1.7-6.5c1.1-2.1,2.7-3.7,4.7-4.8c2-1.1,4.3-1.7,6.8-1.7c3.9,0,7.1,1.3,9.5,3.8
		c2.5,2.5,3.7,5.7,3.7,9.5c0,3.9-1.3,7.1-3.8,9.6c-2.5,2.6-5.7,3.8-9.5,3.8c-2.3,0-4.6-0.5-6.7-1.6c-2.1-1.1-3.8-2.6-4.9-4.7
		C844.5,355.5,844,353,844,350z M850.9,350.4c0,2.5,0.6,4.5,1.8,5.8c1.2,1.4,2.7,2,4.5,2s3.3-0.7,4.5-2c1.2-1.4,1.8-3.3,1.8-5.9
		c0-2.5-0.6-4.4-1.8-5.8c-1.2-1.4-2.7-2-4.5-2s-3.3,0.7-4.5,2C851.5,345.9,850.9,347.8,850.9,350.4z"/>
	<path class="st0" d="M899.1,363.2h-6.8v-13.1c0-2.8-0.1-4.6-0.4-5.4c-0.3-0.8-0.8-1.4-1.4-1.9c-0.7-0.5-1.4-0.7-2.4-0.7
		c-1.2,0-2.2,0.3-3.2,1s-1.6,1.5-1.9,2.6s-0.5,3-0.5,5.9v11.6h-6.8v-25.6h6.3v3.8c2.2-2.9,5.1-4.3,8.4-4.3c1.5,0,2.9,0.3,4.1,0.8
		c1.2,0.5,2.2,1.2,2.8,2.1s1.1,1.8,1.3,2.8c0.2,1.1,0.4,2.6,0.4,4.6V363.2z"/>
	<path class="st0" d="M941.1,356.9v6.3h-23.8c0.3-2.4,1-4.6,2.3-6.8s3.8-5,7.6-8.5c3.1-2.8,4.9-4.8,5.6-5.8c0.9-1.4,1.4-2.8,1.4-4.2
		c0-1.5-0.4-2.7-1.2-3.5c-0.8-0.8-1.9-1.2-3.4-1.2c-1.4,0-2.5,0.4-3.4,1.3c-0.8,0.9-1.3,2.3-1.4,4.2l-6.8-0.7c0.4-3.7,1.7-6.4,3.8-8
		c2.1-1.6,4.8-2.4,8-2.4c3.5,0,6.2,0.9,8.2,2.8s3,4.2,3,7c0,1.6-0.3,3.1-0.9,4.6c-0.6,1.4-1.5,2.9-2.7,4.5c-0.8,1-2.3,2.6-4.4,4.5
		c-2.1,2-3.5,3.3-4.1,3.9c-0.6,0.6-1,1.3-1.4,1.9H941.1z"/>
	<path class="st0" d="M947.2,363.2v-6.8h6.8v6.8H947.2z"/>
	<path class="st0" d="M970.9,327.7c3.4,0,6.1,1.2,8,3.7c2.3,2.9,3.5,7.7,3.5,14.4c0,6.7-1.2,11.5-3.5,14.4c-1.9,2.4-4.6,3.6-8,3.6
		c-3.4,0-6.2-1.3-8.3-4c-2.1-2.6-3.2-7.4-3.2-14.2c0-6.7,1.2-11.5,3.5-14.4C964.8,328.9,967.5,327.7,970.9,327.7z M970.9,333.3
		c-0.8,0-1.6,0.3-2.2,0.8s-1.1,1.5-1.5,2.8c-0.5,1.8-0.7,4.7-0.7,8.9s0.2,7,0.6,8.6c0.4,1.6,0.9,2.6,1.6,3.1
		c0.6,0.5,1.4,0.8,2.2,0.8c0.8,0,1.6-0.3,2.2-0.8s1.1-1.5,1.5-2.8c0.5-1.7,0.7-4.7,0.7-8.8s-0.2-7-0.6-8.6c-0.4-1.6-0.9-2.6-1.6-3.1
		S971.7,333.3,970.9,333.3z"/>
</g>
</svg>
