<?xml version="1.0" encoding="utf-8"?>
<!-- Generator: Adobe Illustrator 16.0.3, SVG Export Plug-In . SVG Version: 6.00 Build 0)  -->
<!DOCTYPE svg PUBLIC "-//W3C//DTD SVG 1.1//EN" "http://www.w3.org/Graphics/SVG/1.1/DTD/svg11.dtd">
<svg version="1.1" id="Layer_1" xmlns="http://www.w3.org/2000/svg" xmlns:xlink="http://www.w3.org/1999/xlink" x="0px" y="0px"
	 width="531.833px" height="97.167px" viewBox="0 0 531.833 97.167" enable-background="new 0 0 531.833 97.167"
	 xml:space="preserve">
<g>
	<path fill="#FFFFFF" d="M39.311,55.536v0.917c0,2.394,1.392,3.973,4.008,3.973c2.338,0,3.896-1.07,3.896-3.26
		c0-1.783-1.28-2.598-2.783-3.107l-5.399-1.783c-4.23-1.375-6.401-3.769-6.401-7.64c0-4.533,3.117-8.251,11.021-8.251
		c6.958,0,10.242,2.853,10.242,7.793v1.121h-6.902c0-2.75-0.891-4.125-3.396-4.125c-1.948,0-3.618,1.019-3.618,2.954
		c0,1.324,0.779,2.445,3.34,3.209l4.62,1.426c4.843,1.478,6.624,3.718,6.624,7.844c0,5.755-4.676,8.607-11.133,8.607
		c-8.628,0-11.021-3.463-11.021-8.709v-0.968H39.311z"/>
	<path fill="#FFFFFF" d="M59.574,29.254h7.682v7.844h4.453v4.788h-4.453v14.822c0,2.139,0.501,3.005,2.728,3.005
		c0.612,0,1.225-0.051,1.726-0.102v4.89c-1.67,0.153-3.229,0.306-5.01,0.306c-6.012,0-7.125-1.681-7.125-7.233V41.885h-3.896v-4.788
		h3.896V29.254z"/>
	<path fill="#FFFFFF" d="M73.826,45.501v-0.662c0-6.315,4.731-8.455,10.521-8.455c9.129,0,10.854,3.464,10.854,8.404v14.414
		c0,2.547,0.167,3.718,0.946,5.297h-7.348c-0.501-0.866-0.724-1.936-0.946-2.852h-0.111c-1.781,2.852-3.952,3.565-7.626,3.565
		c-5.344,0-7.236-4.176-7.236-7.844c0-5.144,2.282-7.232,7.57-8.557l4.342-1.07c2.282-0.56,3.062-1.375,3.062-3.209
		c0-2.088-1.002-3.361-3.563-3.361c-2.338,0-3.563,1.426-3.563,3.565v0.764H73.826z M87.853,50.799
		c-1.058,0.713-2.338,1.171-3.284,1.375c-3.117,0.611-4.342,1.987-4.342,4.432c0,2.088,0.835,3.82,2.895,3.82
		s4.731-1.223,4.731-4.228V50.799z"/>
	<path fill="#FFFFFF" d="M100.157,37.098h7.348v3.667h0.111c1.559-2.648,3.729-4.38,6.902-4.38c0.445,0,0.946,0.051,1.392,0.102
		v6.723c-0.779-0.051-1.614-0.102-2.394-0.102c-2.672,0-5.678,1.273-5.678,4.94V64.5h-7.682V37.098z"/>
	<path fill="#FFFFFF" d="M122.114,29.254h7.682v7.844h4.453v4.788h-4.453v14.822c0,2.139,0.501,3.005,2.728,3.005
		c0.612,0,1.225-0.051,1.726-0.102v4.89c-1.67,0.153-3.229,0.306-5.01,0.306c-6.012,0-7.125-1.681-7.125-7.233V41.885h-3.896v-4.788
		h3.896V29.254z"/>
	<path fill="#FFFFFF" d="M152.653,55.536v0.917c0,2.394,1.392,3.973,4.008,3.973c2.338,0,3.896-1.07,3.896-3.26
		c0-1.783-1.28-2.598-2.783-3.107l-5.399-1.783c-4.23-1.375-6.401-3.769-6.401-7.64c0-4.533,3.117-8.251,11.021-8.251
		c6.958,0,10.242,2.853,10.242,7.793v1.121h-6.902c0-2.75-0.891-4.125-3.396-4.125c-1.948,0-3.618,1.019-3.618,2.954
		c0,1.324,0.779,2.445,3.34,3.209l4.62,1.426c4.843,1.478,6.624,3.718,6.624,7.844c0,5.755-4.676,8.607-11.133,8.607
		c-8.628,0-11.021-3.463-11.021-8.709v-0.968H152.653z"/>
	<path fill="#FFFFFF" d="M172.917,29.254h7.682v7.844h4.453v4.788h-4.453v14.822c0,2.139,0.501,3.005,2.728,3.005
		c0.612,0,1.225-0.051,1.726-0.102v4.89c-1.67,0.153-3.229,0.306-5.01,0.306c-6.012,0-7.125-1.681-7.125-7.233V41.885h-3.896v-4.788
		h3.896V29.254z"/>
	<path fill="#FFFFFF" d="M187.224,37.098h7.348v3.667h0.111c1.559-2.648,3.729-4.38,6.902-4.38c0.445,0,0.946,0.051,1.392,0.102
		v6.723c-0.779-0.051-1.614-0.102-2.394-0.102c-2.672,0-5.678,1.273-5.678,4.94V64.5h-7.682V37.098z"/>
	<path fill="#FFFFFF" d="M205.539,37.098h7.682V64.5h-7.682V37.098z"/>
	<path fill="#FFFFFF" d="M218.12,37.098h7.348v2.801h0.111c1.948-2.496,4.342-3.515,7.57-3.515c3.507,0,6.067,1.579,6.902,4.38
		h0.111c1.169-2.903,3.952-4.38,7.57-4.38c5.065,0,7.459,2.903,7.459,8.201V64.5h-7.682V45.349c0-2.292-0.835-3.565-3.006-3.565
		c-2.449,0-4.008,1.528-4.008,4.686V64.5h-7.682V45.349c0-2.292-0.835-3.565-3.006-3.565c-2.449,0-4.008,1.528-4.008,4.686V64.5
		h-7.682V37.098z"/>
	<path fill="#FFFFFF" d="M259.817,37.098h7.348v2.801h0.111c1.948-2.496,4.342-3.515,7.57-3.515c3.507,0,6.067,1.579,6.902,4.38
		h0.111c1.169-2.903,3.952-4.38,7.57-4.38c5.065,0,7.459,2.903,7.459,8.201V64.5h-7.682V45.349c0-2.292-0.835-3.565-3.006-3.565
		c-2.449,0-4.008,1.528-4.008,4.686V64.5h-7.682V45.349c0-2.292-0.835-3.565-3.006-3.565c-2.449,0-4.008,1.528-4.008,4.686V64.5
		h-7.682V37.098z"/>
	<path fill="#FFFFFF" d="M301.792,27.726h7.681v6.01h-7.681V27.726z M301.792,37.098h7.681V64.5h-7.681V37.098z"/>
	<path fill="#FFFFFF" d="M314.374,37.098h7.348v3.209h0.111c1.613-2.7,4.396-3.922,7.625-3.922c4.787,0,7.627,2.394,7.627,7.793
		V64.5h-7.682V45.604c0-2.75-1.002-3.82-3.285-3.82c-2.615,0-4.063,1.477-4.063,4.533V64.5h-7.682V37.098z"/>
	<path fill="#FFFFFF" d="M364.141,37.098v26.027c0,7.232-3.507,10.747-12.469,10.747c-6.513,0-10.187-2.648-10.187-7.334h7.348
		c0,0.917,0.445,1.63,1.169,2.088c0.724,0.458,1.614,0.764,2.561,0.764c3.117,0,4.23-2.139,4.23-4.94v-3.617h-0.111
		c-1.559,2.038-3.952,3.362-6.401,3.362c-6.123,0-9.185-3.82-9.185-13.854c0-6.417,1.058-13.956,9.407-13.956
		c2.115,0,4.731,0.917,6.179,3.77h0.111v-3.056H364.141z M352.618,58.795c3.229,0,4.175-3.209,4.175-7.844
		c0-6.672-0.946-9.168-4.008-9.168c-3.396,0-4.008,2.496-4.008,9.881C348.777,55.434,349.39,58.795,352.618,58.795z"/>
	<path fill="#FFFFFF" d="M383.571,29.254h7.682v7.844h4.453v4.788h-4.453v14.822c0,2.139,0.501,3.005,2.728,3.005
		c0.612,0,1.225-0.051,1.726-0.102v4.89c-1.67,0.153-3.229,0.306-5.01,0.306c-6.012,0-7.125-1.681-7.125-7.233V41.885h-3.896v-4.788
		h3.896V29.254z"/>
	<path fill="#FFFFFF" d="M408.678,36.384c9.24-0.152,11.801,4.89,11.801,14.415c0,9.372-3.006,14.414-11.801,14.414
		c-9.24,0.153-11.801-4.89-11.801-14.414C396.877,41.427,399.883,36.384,408.678,36.384z M408.678,60.425
		c3.117,0,4.119-2.801,4.119-9.626s-1.002-9.626-4.119-9.626c-3.785,0-4.119,4.024-4.119,9.626S404.893,60.425,408.678,60.425z"/>
	<path fill="#FFFFFF" d="M439.463,61.597h-0.111c-1.67,2.547-3.785,3.616-6.791,3.616c-6.29,0-9.185-4.228-9.185-14.414
		c0-10.187,2.895-14.415,9.185-14.415c2.895,0,4.843,1.07,6.457,3.26h0.111V28.133h7.682V64.5h-7.348V61.597z M435.065,59.814
		c3.396,0,4.063-3.056,4.063-9.015s-0.668-9.015-4.063-9.015c-3.34,0-4.008,3.056-4.008,9.015S431.726,59.814,435.065,59.814z"/>
	<path fill="#FFFFFF" d="M451.378,45.501v-0.662c0-6.315,4.731-8.455,10.521-8.455c9.129,0,10.854,3.464,10.854,8.404v14.414
		c0,2.547,0.167,3.718,0.946,5.297h-7.348c-0.501-0.866-0.724-1.936-0.946-2.852h-0.111c-1.781,2.852-3.952,3.565-7.626,3.565
		c-5.344,0-7.236-4.176-7.236-7.844c0-5.144,2.282-7.232,7.57-8.557l4.342-1.07c2.282-0.56,3.062-1.375,3.062-3.209
		c0-2.088-1.002-3.361-3.563-3.361c-2.338,0-3.563,1.426-3.563,3.565v0.764H451.378z M465.405,50.799
		c-1.058,0.713-2.338,1.171-3.284,1.375c-3.117,0.611-4.342,1.987-4.342,4.432c0,2.088,0.835,3.82,2.895,3.82
		s4.731-1.223,4.731-4.228V50.799z"/>
	<path fill="#FFFFFF" d="M477.71,68.218c0.668,0.102,1.336,0.153,2.004,0.153c2.839,0,3.896-1.426,4.119-3.871l-8.405-27.402h8.016
		l4.453,18.947h0.111l3.896-18.947h7.682l-7.236,25.569c-2.672,9.474-4.397,10.798-11.522,10.798h-3.117V68.218z"/>
</g>
<path fill="#FFFFFF" d="M202.059,35.161l0.043-0.048l-5.867-5.197c0.482-0.544,4.958-5.318,13.528-5.318
	c6.464,0,10.992,3.487,12.649,5.547l-6.108,4.912l0.038,0.046c-0.094-0.108-2.34-2.667-6.579-2.667
	C204.706,32.436,202.165,35.049,202.059,35.161z"/>
</svg>
